<svg xmlns="http://www.w3.org/2000/svg" viewBox="0 0 240 240" width="128" height="129">
  <defs>
    <linearGradient id="telegram-gradient" x1="0" y1="0" x2="1" y2="1">
      <stop offset="0%" stop-color="#2AABEE"/>
      <stop offset="100%" stop-color="#229ED9"/>
    </linearGradient>
  </defs>
  <circle cx="120" cy="120" r="120" fill="url(#telegram-gradient)"/>
  <path d="m98 175c-3.888 0-3.227-1.468-4.568-5.17L82 132.207 170 80" fill="#C8DAEA"/>
  <path d="m98 175c3 0 4.325-1.372 6-3l16-15.558-19.958-12.035" fill="#A9C9DD"/>
  <path d="M100.04 144.41l48.36 35.729c5.519 3.045 9.501 1.468 10.876-5.123l19.685-92.763c2.015-8.08-3.08-11.746-8.36-9.349l-115.59 44.571c-7.89 3.165-7.843 7.567-1.438 9.528l29.663 9.259 68.673-43.325c3.242-1.966 6.218-.91 3.776 1.258" fill="#FFFFFF"/>
</svg>
