<svg xmlns="http://www.w3.org/2000/svg" width="1363" height="347" viewBox="0 0 1363 347" fill="none"><path d="M194.992 0C211.916 0 221.902 5.25676 228.84 14.7189C235.777 24.7068 236.198 32.9073 236.198 50.2546C236.198 50.2546 235.777 216.684 235.357 225.41C233.99 247.488 227.578 274.403 223.268 283.024C217.277 296.481 206.765 312.462 190.367 322.975C166.085 338.22 136.652 342.005 119.728 342.005C94.1848 342.005 73.7921 334.225 62.1241 328.968C50.8766 324.132 40.47 316.772 31.43 306.89C21.8643 296.902 14.5061 284.391 8.93494 268.726C3.04839 253.166 0 234.557 0 213.214C0 191.556 3.04839 173.263 8.61959 157.703C14.2959 142.038 21.6541 129.001 31.1146 119.118C40.1547 109.13 50.5612 101.771 61.8088 97.0398C73.5818 92.2036 85.3549 89.6803 97.0229 89.6803C111.319 89.6803 125.194 92.7293 138.649 98.3014C149.897 102.717 163.352 110.918 170.71 119.118V0H194.992ZM64.9623 213.635C64.9623 220.994 65.3827 228.354 67.5902 237.5C69.7976 246.542 72.846 254.427 77.5763 261.366C81.9912 268.305 87.5624 273.982 94.5001 277.872C101.438 282.288 109.742 284.286 119.203 284.286C128.768 284.286 136.442 282.078 143.485 277.872C150.843 273.982 156.519 268.305 160.829 261.366C165.664 254.427 168.608 246.647 170.815 237.5C173.022 228.459 173.443 220.679 173.443 213.635V211.427C173.443 207.011 172.602 201.019 170.815 193.554C168.608 184.933 165.559 176.732 160.829 169.688C156.414 162.749 150.843 157.072 143.485 153.182C136.652 148.977 128.768 147.189 119.203 147.189C109.637 147.189 101.438 148.977 94.5001 153.287C87.5624 157.177 81.8861 162.854 77.5763 169.793C72.7409 176.732 69.7976 185.038 67.5902 193.659C65.8032 201.439 64.9623 205.855 64.9623 210.586V213.635Z" fill="#2556d6"></path><path d="M441.912 327.812C431.925 333.804 420.257 338.641 410.692 340.848C400.285 343.897 384.202 345.685 369.591 346.105H364.02C319.871 346.105 286.023 327.496 274.776 311.831C266.997 300.582 265.21 292.381 265.21 278.503C265.21 278.503 263.949 254.217 263.949 227.407C263.949 206.591 264.79 184.512 267.417 171.476C272.253 149.818 283.921 128.16 301.265 116.49C323.76 101.771 346.781 93.9909 377.054 93.9909C389.668 93.9909 406.067 93.9909 431.61 103.033C440.23 106.502 450.216 112.074 456.733 118.698C461.568 123.113 467.981 131.734 471.975 140.356C475.864 148.977 477.967 158.964 477.967 170.634C477.967 183.671 474.498 194.08 471.029 202.701C460.622 228.774 438.127 237.816 429.928 240.865C429.508 240.865 429.087 241.285 428.667 241.285C419.627 244.334 410.061 245.701 400.495 246.857C390.93 248.645 381.89 249.906 372.745 250.748C363.179 251.589 357.503 251.589 350.67 253.796C343.732 255.584 338.056 258.212 334.167 261.576C330.277 264.625 327.649 268.515 327.649 272.826C327.649 277.662 328.49 282.814 330.698 286.704C336.69 296.271 355.4 298.899 374.006 298.899C386.62 298.899 396.081 296.271 403.018 291.119C410.376 285.863 414.686 279.029 415.632 269.462H478.387C477.126 279.449 473.972 293.748 467.56 303.736C461.043 312.988 452.003 322.134 441.912 327.812ZM351.511 205.539C355.926 204.698 360.551 203.752 365.807 203.332C370.642 202.911 375.793 201.965 380.523 201.124C385.359 200.283 390.089 198.916 394.819 197.654C399.234 195.867 403.439 194.605 406.487 191.661C412.058 186.089 417.735 180.412 417.735 169.583V167.375C417.735 162.539 416.368 158.754 414.686 155.285C412.479 151.395 409.851 148.871 406.487 146.664C403.018 144.456 398.709 142.774 393.873 141.827C389.038 140.986 384.307 140.566 379.157 140.566C367.068 140.566 357.503 142.774 350.565 146.979C343.627 150.869 338.897 156.021 335.323 161.698C332.275 167.27 330.067 173.368 329.331 179.045C328.911 185.038 328.49 189.874 328.49 193.344V214.16C331.118 211.953 334.482 210.27 338.477 208.904C342.261 207.747 346.676 206.38 351.511 205.539Z" fill="#2556d6"></path><path d="M856.913 111.128C856.913 121.116 853.444 127.95 849.134 133.627C845.245 138.043 835.259 142.668 823.065 143.194H805.721V260.735C805.721 271.985 807.929 279.765 811.292 283.76C815.182 287.65 822.96 288.07 834.313 288.07H856.808V342.215H815.707C805.301 342.215 795.315 341.795 786.275 340.007C776.709 338.746 768.51 336.117 761.152 331.807C754.214 327.391 748.538 321.819 744.333 314.039C740.443 306.679 738.341 296.692 738.341 284.18V3.5746H763.464C778.706 3.5746 791.635 9.98784 797.312 17.873C804.249 27.4403 805.931 34.6946 805.931 42.1592V96.7244H856.913V111.128Z" fill="#2556d6"></path><path d="M946.578 85.4749V97.1449H997.665V111.443C997.665 121.852 994.196 128.791 989.886 133.942C985.997 138.778 976.011 143.51 963.397 143.51H946.052V342.005H878.462V62.1349C878.462 49.5187 880.67 39.636 884.454 32.2765C888.869 24.4965 894.44 18.3987 901.798 14.5087C908.736 10.093 917.04 7.56974 926.501 5.88757C936.066 4.62595 945.947 3.67973 956.354 3.67973H997.454V58.2449H974.959C963.291 58.2449 955.933 58.6655 951.939 62.6606C948.26 66.4455 946.578 74.2255 946.578 85.4749Z" fill="#2556d6"></path><path d="M1019.42 17.873V3.99514H1086.59V58.9809H1061.89C1051.06 58.9809 1035.82 55.5114 1028.99 47.7314C1022.05 40.0565 1019.42 28.7019 1019.42 17.873ZM1086.59 148.766V342.11H1019.42V97.6706H1041.92C1057.58 97.6706 1066.62 101.561 1076.19 113.336C1086.07 125.847 1086.59 135.309 1086.59 148.766Z" fill="#2556d6"></path><path d="M1139.78 97.6706C1160.18 97.6706 1181.83 103.663 1192.24 109.341C1202.22 114.913 1211.26 125.847 1217.78 135.835L1235.12 161.383L1277.59 97.6706H1352.12L1271.49 212.058L1362.11 342.005H1335.62C1325.21 342.425 1299.25 337.589 1286.21 330.335C1278.01 325.499 1264.98 311.305 1263.19 309.098L1234.18 264.941L1183.09 342.11H1108.14L1196.13 213.424L1115.5 97.7758L1139.78 97.6706Z" fill="#2556d6"></path><path d="M690.723 268.726C691.669 265.782 692.615 262.838 693.561 259.789C686.098 261.051 675.271 262.312 663.393 263.153C650.253 263.995 638.48 264.1 630.912 263.574C631.648 266.518 632.383 269.567 633.014 272.616C631.227 273.141 630.176 273.667 630.176 274.193C630.281 275.98 644.787 276.611 662.447 275.454C680.212 274.298 694.402 271.985 694.297 270.092C694.192 269.462 692.931 269.041 690.723 268.726Z" fill="#2556D6"></path><path d="M684.521 285.968C685.257 283.865 686.203 281.868 686.939 279.765C682.629 281.132 672.959 282.393 661.606 283.129C648.887 283.865 638.06 283.76 634.696 282.709C635.011 285.022 635.222 287.124 635.432 289.332C634.17 289.753 633.54 290.173 633.54 290.489C633.645 292.066 645.733 292.486 660.66 291.54C675.586 290.594 687.57 288.596 687.36 287.124C687.254 286.493 686.308 286.178 684.521 285.968Z" fill="#2556D6"></path><path d="M680.212 295.745C677.794 296.902 668.964 298.269 658.347 298.899C647.52 299.635 638.48 299.32 636.062 298.479C636.168 300.582 636.273 302.579 636.273 304.577C635.011 304.892 634.275 305.418 634.381 305.733C634.486 306.995 644.577 307.415 657.086 306.574C669.595 305.838 679.581 304.156 679.581 302.789C679.581 302.474 678.74 302.159 677.268 301.948C678.319 299.951 679.371 297.848 680.212 295.745Z" fill="#2556D6"></path><path d="M655.719 313.408C647.52 313.934 640.372 313.934 636.378 313.513C636.378 315.616 636.273 317.508 636.168 319.191C634.906 319.506 634.276 319.926 634.276 320.137C634.381 321.188 642.685 321.503 652.986 320.978C663.183 320.347 671.487 318.98 671.382 317.929C671.382 317.613 670.541 317.298 668.964 317.193C670.12 315.406 671.277 313.618 672.328 311.726C668.123 312.357 662.237 312.988 655.719 313.408Z" fill="#2556D6"></path><path d="M635.957 327.391C639.847 353.254 658.978 330.23 658.978 330.23C660.239 328.758 661.501 327.286 662.762 325.709C659.398 326.235 654.773 326.76 649.623 327.076C644.156 327.496 639.321 327.601 635.957 327.391Z" fill="#2556D6"></path><path d="M697.03 247.173C704.494 218.05 707.227 194.185 707.227 194.185C715.426 120.275 679.476 102.822 679.476 102.822C660.975 90.8368 624.92 112.074 624.92 112.074C588.129 132.996 556.699 130.368 556.699 130.368C594.962 121.116 601.899 113.756 601.899 113.756C590.337 113.546 563.637 100.614 563.637 100.614C513.917 83.2671 506.979 147.294 506.979 147.294C498.99 221.205 530.525 274.088 530.525 274.088C553.756 322.66 564.268 315.616 564.268 315.616C570.575 311.726 570.68 295.43 570.68 295.43C573.938 260.525 582.243 248.54 582.243 248.54C597.8 221.31 614.829 233.61 619.454 237.816C619.98 238.236 620.82 239.603 621.241 240.129C623.659 244.439 625.235 248.014 627.128 252.64C625.025 253.271 623.869 253.902 623.869 254.427C624.079 256.635 641.108 257.266 662.026 255.899C682.945 254.638 699.868 251.694 699.658 249.591C699.658 249.065 698.502 248.645 696.61 248.329C696.82 247.909 696.925 247.488 697.03 247.173Z" fill="#2556D6"></path></svg>