<?xml version="1.0" encoding="utf-8"?>
<!-- Generator: Adobe Illustrator 26.2.1, SVG Export Plug-In . SVG Version: 6.00 Build 0)  -->
<svg version="1.1" id="Layer_1" xmlns="http://www.w3.org/2000/svg" xmlns:xlink="http://www.w3.org/1999/xlink" x="0px" y="0px"
	 viewBox="0 0 512 512" style="enable-background:new 0 0 512 512;" xml:space="preserve">
<style type="text/css">
	.st0{fill:#21234A;}
</style>
<g>
	<path class="st0" d="M375.8,327.7c1.4-4.3,2.8-8.5,4-12.8c-10.8,1.9-26.2,3.6-43.3,4.8c-18.8,1.3-35.7,1.4-46.6,0.6
		c1.1,4.3,2.1,8.6,3,12.9c-2.6,0.8-4,1.5-4,2.3c0.1,2.6,20.9,3.5,46.3,1.9s45.8-5,45.7-7.6C380.8,328.8,378.9,328.2,375.8,327.7z"/>
	<path class="st0" d="M366.9,352.4c1.1-3,2.4-5.9,3.5-8.9c-6.1,1.9-20,3.8-36.3,4.8c-18.3,1.1-33.7,0.9-38.6-0.6
		c0.5,3.3,0.8,6.4,1.1,9.5c-1.8,0.6-2.8,1.1-2.8,1.6c0.1,2.3,17.5,2.9,38.9,1.5c21.4-1.4,38.6-4.3,38.3-6.4
		C370.9,353.3,369.5,352.8,366.9,352.4z"/>
	<path class="st0" d="M360.7,366.5c-3.5,1.6-16.2,3.6-31.3,4.5c-15.5,1-28.5,0.6-31.9-0.6c0.1,3,0.3,5.9,0.4,8.8
		c-1.9,0.5-2.9,1.1-2.8,1.6c0.1,1.9,14.6,2.4,32.6,1.3c17.9-1.1,32.3-3.5,32.2-5.4c0-0.5-1.3-0.9-3.3-1.3
		C358,372.5,359.5,369.5,360.7,366.5L360.7,366.5z"/>
	<path class="st0" d="M325.7,391.7c-11.8,0.8-22,0.8-27.8,0.1c0,3-0.1,5.8-0.3,8.1c-1.8,0.5-2.8,1-2.8,1.4c0.1,1.5,12,2,26.8,1.1
		c14.6-0.9,26.5-2.9,26.4-4.4c0-0.5-1.3-0.9-3.5-1.1c1.6-2.5,3.3-5.1,4.8-7.8C343.3,390.2,334.9,391.2,325.7,391.7z"/>
	<path class="st0" d="M297.3,411.8c5.5,37.1,32.9,4.1,32.9,4.1c1.9-2.1,3.6-4.3,5.4-6.5c-4.8,0.8-11.4,1.5-18.9,2
		C309,412,302.1,412.1,297.3,411.8z"/>
	<path class="st0" d="M384.9,296.8c10.8-41.7,14.6-75.9,14.6-75.9C411.3,115,359.7,90,359.7,90c-26.5-17.2-78.1,13.3-78.1,13.3
		c-52.7,30-97.8,26.2-97.8,26.2c54.8-13.3,64.9-23.8,64.9-23.8c-16.5-0.4-54.8-18.8-54.8-18.8c-71.2-24.9-81.3,66.9-81.3,66.9
		c-11.5,105.9,33.7,181.8,33.7,181.8c33.3,69.6,48.3,59.5,48.3,59.5c9-5.5,9.3-28.9,9.3-28.9c4.6-50.1,16.5-67.2,16.5-67.2
		c22.3-39.1,46.7-21.4,53.3-15.4c0.8,0.6,2,2.6,2.6,3.4c3.5,6.1,5.8,11.3,8.4,17.9c-3,0.9-4.6,1.8-4.6,2.6
		c0.3,3.1,24.7,4.1,54.7,2.1c30-1.9,54.2-6,54-9c0-0.8-1.6-1.4-4.4-1.9C384.5,297.9,384.6,297.3,384.9,296.8L384.9,296.8z"/>
</g>
</svg>
