<svg xmlns="http://www.w3.org/2000/svg" width="152.975" height="38.857" viewBox="0 0 152.975 38.857"><path d="M38.632,24.033a4.223,4.223,0,0,1,3.8,1.658c.775,1.118.824,2.04.824,3.992,0,0-.049,18.688-.1,19.669a22.1,22.1,0,0,1-1.363,6.474,10.286,10.286,0,0,1-3.7,4.483,15.465,15.465,0,0,1-14.411.677A9.94,9.94,0,0,1,20.23,58.5,11.828,11.828,0,0,1,17.7,54.218a18.559,18.559,0,0,1-.971-6.239,18.3,18.3,0,0,1,.971-6.23,12.2,12.2,0,0,1,2.531-4.336,9.815,9.815,0,0,1,3.453-2.482,10.338,10.338,0,0,1,3.943-.824,12.034,12.034,0,0,1,4.67.971,10.3,10.3,0,0,1,3.6,2.335V24.033ZM24.026,48.028a10.882,10.882,0,0,0,.294,2.678,7.923,7.923,0,0,0,1.118,2.678,5.379,5.379,0,0,0,1.9,1.854,5.094,5.094,0,0,0,2.776.726,5.543,5.543,0,0,0,4.67-2.58,7.731,7.731,0,0,0,1.118-2.678,11.078,11.078,0,0,0,.294-2.678v-.245a9.312,9.312,0,0,0-.294-2A8.455,8.455,0,0,0,34.787,43.1a5.185,5.185,0,0,0-1.942-1.854,4.911,4.911,0,0,0-2.728-.687,5.1,5.1,0,0,0-2.776.687,5.377,5.377,0,0,0-1.9,1.854,8.147,8.147,0,0,0-1.118,2.679,8.507,8.507,0,0,0-.294,1.9Z" transform="translate(-16.727 -24.033)" fill="#21234a"/><path d="M85.074,67.489a12.7,12.7,0,0,1-3.5,1.462,20.468,20.468,0,0,1-4.62.589h-.628c-4.964,0-8.76-2.089-10.026-3.845a5.673,5.673,0,0,1-1.069-3.748s-.147-2.727-.147-5.738a37.564,37.564,0,0,1,.392-6.279,10.177,10.177,0,0,1,3.8-6.18,14.644,14.644,0,0,1,8.515-2.531,16.321,16.321,0,0,1,6.131,1.02,8.949,8.949,0,0,1,2.826,1.756,8.269,8.269,0,0,1,1.707,2.433,8.1,8.1,0,0,1,.677,3.4,9.5,9.5,0,0,1-.775,3.6,7.63,7.63,0,0,1-4.621,4.287c-.049,0-.1.049-.147.049a16.376,16.376,0,0,1-3.159.628c-1.069.2-2.089.343-3.119.441a11.206,11.206,0,0,0-2.482.343,4.533,4.533,0,0,0-1.855.873,1.638,1.638,0,0,0-.726,1.265,3.31,3.31,0,0,0,.343,1.56c.677,1.07,2.777,1.364,4.866,1.364a5.316,5.316,0,0,0,3.257-.873,3.2,3.2,0,0,0,1.413-2.433h7.054a9.922,9.922,0,0,1-1.216,3.846A9.157,9.157,0,0,1,85.074,67.489ZM74.912,53.765a13.94,13.94,0,0,1,1.609-.245c.54-.049,1.118-.147,1.658-.245s1.069-.245,1.609-.392a3.877,3.877,0,0,0,1.314-.677,3.275,3.275,0,0,0,1.265-2.482v-.245a2.949,2.949,0,0,0-.343-1.363,2.589,2.589,0,0,0-.922-.971,4.041,4.041,0,0,0-1.413-.54,9.064,9.064,0,0,0-1.658-.147,6.068,6.068,0,0,0-3.208.726,4.7,4.7,0,0,0-1.707,1.658,5.9,5.9,0,0,0-.677,1.942c-.049.677-.1,1.217-.1,1.609v2.335a3.448,3.448,0,0,1,1.118-.589A12.95,12.95,0,0,1,74.912,53.765Z" transform="translate(-35.436 -30.682)" fill="#21234a"/><path d="M165.3,35.156v1.609a4,4,0,0,1-.873,2.531,4.43,4.43,0,0,1-2.923,1.069h-1.942V53.559a4.1,4.1,0,0,0,.628,2.58c.441.441,1.314.49,2.58.49H165.3v6.082h-4.62a17.757,17.757,0,0,1-3.306-.245,7.619,7.619,0,0,1-2.826-.922,5.365,5.365,0,0,1-1.893-1.991,7.135,7.135,0,0,1-.677-3.355V24.689h2.825a4.781,4.781,0,0,1,3.8,1.609,4.349,4.349,0,0,1,.971,2.727v6.131Z" transform="translate(-69.059 -24.287)" fill="#21234a"/><path d="M185.321,33.9v1.314h5.739V36.82a3.794,3.794,0,0,1-.873,2.531,4.023,4.023,0,0,1-2.973,1.069h-1.942V62.708H177.68V31.267a7.256,7.256,0,0,1,.677-3.355,4.816,4.816,0,0,1,1.942-1.991,7.744,7.744,0,0,1,2.776-.971,24.526,24.526,0,0,1,3.355-.245h4.621v6.131H188.52c-1.315,0-2.139.049-2.58.49A3.761,3.761,0,0,0,185.321,33.9Z" transform="translate(-79.002 -24.293)" fill="#21234a"/><path d="M203.473,26.329v-1.56h7.544v6.18H208.24a5.434,5.434,0,0,1-3.7-1.265A5.061,5.061,0,0,1,203.473,26.329Zm7.544,14.695V62.733h-7.544V35.285H206a4.3,4.3,0,0,1,3.846,1.756A5.4,5.4,0,0,1,211.017,41.024Z" transform="translate(-88.982 -24.318)" fill="#21234a"/><path d="M223.291,41.922a13.972,13.972,0,0,1,5.886,1.314,9.364,9.364,0,0,1,2.874,2.972l1.942,2.874,4.767-7.151h8.368l-9.055,12.851,10.173,14.6h-2.972a13.976,13.976,0,0,1-5.553-1.314,14.566,14.566,0,0,1-2.58-2.384l-3.257-4.964-5.739,8.662H219.73l9.879-14.45-9.055-13h2.737Z" transform="translate(-95.272 -30.955)" fill="#21234a"/><g transform="translate(56.808 10.965)"><path d="M138.963,72.62c.108-.334.216-.667.314-1a33.978,33.978,0,0,1-3.394.373,29.422,29.422,0,0,1-3.65.049c.088.334.167.677.235,1.01-.206.059-.314.118-.314.177.01.206,1.638.275,3.629.147s3.591-.392,3.581-.6C139.356,72.708,139.209,72.659,138.963,72.62Z" transform="translate(-118.196 -53.41)" fill="#21234a"/><path d="M138.514,75.963c.088-.235.186-.461.275-.7a15.386,15.386,0,0,1-2.845.373,12.775,12.775,0,0,1-3.021-.049c.039.255.059.5.088.746-.137.049-.216.088-.216.128.01.177,1.373.226,3.051.118a7.715,7.715,0,0,0,3-.5C138.828,76.032,138.72,75.993,138.514,75.963Z" transform="translate(-118.443 -54.821)" fill="#21234a"/><path d="M138.1,78.212a10.113,10.113,0,0,1-2.453.353,9.868,9.868,0,0,1-2.5-.049c.01.235.02.461.029.687-.147.039-.226.088-.216.128a12.533,12.533,0,0,0,5.072-.324c0-.039-.1-.069-.255-.1.108-.226.226-.461.324-.7Z" transform="translate(-118.505 -55.961)" fill="#21234a"/><path d="M135.336,81.3a14.569,14.569,0,0,1-2.178.01c0,.235-.01.451-.02.638-.137.039-.216.078-.216.108a5.3,5.3,0,0,0,2.1.088,5.22,5.22,0,0,0,2.07-.343c0-.039-.1-.069-.275-.088.128-.2.255-.4.373-.608A17.424,17.424,0,0,1,135.336,81.3Z" transform="translate(-118.493 -57.081)" fill="#21234a"/><path d="M133.227,83.886c.432,2.9,2.58.324,2.58.324.147-.167.285-.334.422-.51-.373.059-.893.118-1.482.157A13.951,13.951,0,0,1,133.227,83.886Z" transform="translate(-118.61 -58.084)" fill="#21234a"/><path d="M130.87,58.7a48.326,48.326,0,0,0,1.148-5.944c.922-8.3-3.119-10.261-3.119-10.261-2.08-1.344-6.122,1.04-6.122,1.04a14.421,14.421,0,0,1-7.662,2.05c4.3-1.04,5.082-1.864,5.082-1.864a16.9,16.9,0,0,1-4.3-1.471c-5.582-1.952-6.367,5.238-6.367,5.238a24.791,24.791,0,0,0,2.639,14.244c2.609,5.455,3.787,4.66,3.787,4.66.706-.432.726-2.266.726-2.266.363-3.924,1.295-5.268,1.295-5.268,1.746-3.061,3.659-1.677,4.179-1.207a2.729,2.729,0,0,1,.206.265,10.162,10.162,0,0,1,.657,1.4c-.235.069-.363.137-.363.206.02.245,1.932.324,4.287.167s4.248-.471,4.228-.706c0-.059-.128-.108-.343-.147a.563.563,0,0,1,.039-.137Z" transform="translate(-109.386 -41.918)" fill="#21234a"/></g></svg>