<svg xmlns="http://www.w3.org/2000/svg" width="44.059" height="44.059" viewBox="0 0 44.059 44.059"><g transform="translate(-0.174 0)"><g transform="translate(0.174 0)" fill="none" stroke="#fff" stroke-width="1"><circle cx="22.03" cy="22.03" r="22.03" stroke="none"/><circle cx="22.03" cy="22.03" r="21.53" fill="none"/></g><g transform="translate(11.174 11)"><g transform="translate(0 0)"><path d="M-281.218,184.937c2.95,0,3.3.011,4.465.064a6.111,6.111,0,0,1,2.051.381,3.423,3.423,0,0,1,1.271.826,3.423,3.423,0,0,1,.827,1.271,6.112,6.112,0,0,1,.381,2.051c.053,1.165.064,1.515.064,4.465s-.011,3.3-.064,4.465a6.112,6.112,0,0,1-.381,2.052,3.423,3.423,0,0,1-.827,1.271,3.423,3.423,0,0,1-1.271.826,6.118,6.118,0,0,1-2.051.381c-1.165.053-1.514.064-4.465.064s-3.3-.011-4.465-.064a6.118,6.118,0,0,1-2.052-.381,3.423,3.423,0,0,1-1.271-.826,3.424,3.424,0,0,1-.826-1.271,6.112,6.112,0,0,1-.38-2.051c-.053-1.165-.064-1.515-.064-4.465s.011-3.3.064-4.465a6.112,6.112,0,0,1,.38-2.051,3.423,3.423,0,0,1,.826-1.271,3.423,3.423,0,0,1,1.271-.826,6.111,6.111,0,0,1,2.051-.381c1.165-.053,1.515-.064,4.465-.064m0-1.991c-3,0-3.377.013-4.556.067a8.112,8.112,0,0,0-2.682.513,5.415,5.415,0,0,0-1.957,1.274,5.419,5.419,0,0,0-1.274,1.957,8.111,8.111,0,0,0-.513,2.682c-.054,1.178-.067,1.555-.067,4.556s.013,3.377.067,4.556a8.111,8.111,0,0,0,.513,2.682,5.419,5.419,0,0,0,1.274,1.957,5.418,5.418,0,0,0,1.957,1.274,8.11,8.11,0,0,0,2.682.513c1.179.054,1.555.067,4.556.067s3.377-.013,4.556-.067a8.109,8.109,0,0,0,2.682-.513,5.419,5.419,0,0,0,1.957-1.274,5.415,5.415,0,0,0,1.274-1.957,8.1,8.1,0,0,0,.513-2.682c.054-1.179.067-1.555.067-4.556s-.013-3.377-.067-4.556a8.1,8.1,0,0,0-.513-2.682,5.415,5.415,0,0,0-1.274-1.957,5.416,5.416,0,0,0-1.957-1.274,8.11,8.11,0,0,0-2.682-.513c-1.178-.054-1.555-.067-4.556-.067Z" transform="translate(292.267 -182.946)" fill="#fff"/><path d="M-265.917,203.622a5.674,5.674,0,0,0-5.674,5.674,5.674,5.674,0,0,0,5.674,5.674,5.674,5.674,0,0,0,5.674-5.674A5.674,5.674,0,0,0-265.917,203.622Zm0,9.357A3.683,3.683,0,0,1-269.6,209.3a3.683,3.683,0,0,1,3.683-3.683,3.683,3.683,0,0,1,3.683,3.683A3.683,3.683,0,0,1-265.917,212.979Z" transform="translate(276.966 -198.247)" fill="#fff"/><circle cx="1.326" cy="1.326" r="1.326" transform="translate(15.621 3.825)" fill="#fff"/></g></g></g></svg>