<svg xmlns="http://www.w3.org/2000/svg" width="14.717" height="7.336" viewBox="0 0 14.717 7.336"><path d="M259.312-667.013c.687-.593,1.355-1.169,2.023-1.747l3.878-3.359c.453-.392.873-.417,1.2-.073a.994.994,0,0,1-.007,1.335,2.313,2.313,0,0,1-.209.2q-2.956,2.561-5.913,5.12a1.307,1.307,0,0,1-1.953,0q-2.944-2.547-5.887-5.1a1.133,1.133,0,0,1-.493-.833.878.878,0,0,1,.485-.886.779.779,0,0,1,.919.187q2.492,2.165,4.989,4.324C258.66-667.573,258.976-667.3,259.312-667.013Z" transform="translate(-251.952 672.438)" fill="#4c86bc"/></svg>