<svg xmlns="http://www.w3.org/2000/svg" width="29.441" height="34.158"><path data-name="Path 38" d="M13.3 4.477C10.948 6.9 8.6 9.332 6.242 11.744c-1.148 1.172-2.33 2.312-3.5 3.461a2.494 2.494 0 0 1-.6.472 1.059 1.059 0 0 1-1.34-.285.951.951 0 0 1-.083-1.255 3.711 3.711 0 0 1 .5-.583Q7.361 7.4 13.509 1.259c1.018-1.018 1.416-1.013 2.451.023l12.243 12.254a4.324 4.324 0 0 1 .5.58.951.951 0 0 1-.081 1.3 1.073 1.073 0 0 1-1.4.218 5.388 5.388 0 0 1-.8-.7q-4.959-4.9-9.914-9.8c-.157-.155-.34-.286-.648-.542v27.329a5.84 5.84 0 0 1-.025.77 1.127 1.127 0 0 1-2.224.039 4.09 4.09 0 0 1-.043-.709V5.432c0-.267-.026-.534-.041-.8z" fill="#fff" stroke="#fff"/></svg>