<svg xmlns="http://www.w3.org/2000/svg" width="14" height="14" viewBox="0 0 14 14"><circle cx="7" cy="7" r="7" transform="translate(0)" fill="#89b7e2"/><g transform="translate(2.8 4.2)"><path d="M1080.4,37.606l.019-.016.038-.038,3.77-3.769c.027-.027.054-.055.084-.08a.837.837,0,0,1,.547-.209.846.846,0,0,1,.841.658.834.834,0,0,1-.212.779l-.032.032-4.441,4.441a.867.867,0,0,1-.359.22.851.851,0,0,1-.837-.192l-.035-.035-1.723-1.723a1.127,1.127,0,0,1-.083-.092.851.851,0,0,1,.488-1.359.83.83,0,0,1,.77.217c.015.014.029.029.044.044l1.083,1.083Z" transform="translate(-1077.793 -33.493)" fill="#fbfbfb"/></g></svg>