<svg version="1.1" id="Layer_1" xmlns="http://www.w3.org/2000/svg" x="0" y="0" viewBox="0 0 512 512" style="enable-background:new 0 0 512 512" xml:space="preserve"><style>.st0{fill:#21234a}</style><path class="st0" d="M375.8 327.7c1.4-4.3 2.8-8.5 4-12.8-10.8 1.9-26.2 3.6-43.3 4.8-18.8 1.3-35.7 1.4-46.6.6 1.1 4.3 2.1 8.6 3 12.9-2.6.8-4 1.5-4 2.3.1 2.6 20.9 3.5 46.3 1.9s45.8-5 45.7-7.6c-.1-1-2-1.6-5.1-2.1zM366.9 352.4c1.1-3 2.4-5.9 3.5-8.9-6.1 1.9-20 3.8-36.3 4.8-18.3 1.1-33.7.9-38.6-.6.5 3.3.8 6.4 1.1 9.5-1.8.6-2.8 1.1-2.8 1.6.1 2.3 17.5 2.9 38.9 1.5s38.6-4.3 38.3-6.4c-.1-.6-1.5-1.1-4.1-1.5zM360.7 366.5c-3.5 1.6-16.2 3.6-31.3 4.5-15.5 1-28.5.6-31.9-.6.1 3 .3 5.9.4 8.8-1.9.5-2.9 1.1-2.8 1.6.1 1.9 14.6 2.4 32.6 1.3 17.9-1.1 32.3-3.5 32.2-5.4 0-.5-1.3-.9-3.3-1.3 1.4-2.9 2.9-5.9 4.1-8.9zM325.7 391.7c-11.8.8-22 .8-27.8.1 0 3-.1 5.8-.3 8.1-1.8.5-2.8 1-2.8 1.4.1 1.5 12 2 26.8 1.1 14.6-.9 26.5-2.9 26.4-4.4 0-.5-1.3-.9-3.5-1.1 1.6-2.5 3.3-5.1 4.8-7.8-6 1.1-14.4 2.1-23.6 2.6zM297.3 411.8c5.5 37.1 32.9 4.1 32.9 4.1 1.9-2.1 3.6-4.3 5.4-6.5-4.8.8-11.4 1.5-18.9 2-7.7.6-14.6.7-19.4.4z"/><path class="st0" d="M384.9 296.8c10.8-41.7 14.6-75.9 14.6-75.9C411.3 115 359.7 90 359.7 90c-26.5-17.2-78.1 13.3-78.1 13.3-52.7 30-97.8 26.2-97.8 26.2 54.8-13.3 64.9-23.8 64.9-23.8-16.5-.4-54.8-18.8-54.8-18.8-71.2-24.9-81.3 66.9-81.3 66.9-11.5 105.9 33.7 181.8 33.7 181.8 33.3 69.6 48.3 59.5 48.3 59.5 9-5.5 9.3-28.9 9.3-28.9 4.6-50.1 16.5-67.2 16.5-67.2 22.3-39.1 46.7-21.4 53.3-15.4.8.6 2 2.6 2.6 3.4 3.5 6.1 5.8 11.3 8.4 17.9-3 .9-4.6 1.8-4.6 2.6.3 3.1 24.7 4.1 54.7 2.1 30-1.9 54.2-6 54-9 0-.8-1.6-1.4-4.4-1.9.1-.8.2-1.4.5-1.9z"/></svg>