<?xml version="1.0" encoding="UTF-8"?>
<svg xmlns="http://www.w3.org/2000/svg" version="1.1" viewBox="0 0 1568.9 497.3">
  <!-- Generator: Adobe Illustrator 28.7.1, SVG Export Plug-In . SVG Version: 1.2.0 Build 142)  -->
  <g>
    <g id="Layer_1">
      <g>
        <path d="M360,360c6.6,5.9,12.6,11.6,19.1,16.9,30.6,25.3,65.1,42.4,104.2,49.8,4.8.9,9.7,1.2,14.5,2.1,1.1.2,2.7,1.7,2.7,2.7.2,8.5.1,17,.1,25.6-.1,0-.8.2-1.4,0-70.3-22-129.4-60.2-173.4-120.2-11-15-18.7-31.7-26.8-48.1-17.6-35.4-35.1-70.9-52.8-106.4-2.6-5.2-5.3-10.5-8.6-15.2-3.1-4.5-7.7-7.2-13.5-7.2-5.7,0-7.5,1.7-7.9,7.4-.1,1.7,0,3.3,0,5,0,62.8,0,125.5,0,188.3v4.8c-5.4,1.3-9,.3-12.5-4.2-46.7-61.2-93.6-122.3-140.5-183.4-.8-1.1-1.7-2.1-3.4-4.1,0,2.6,0,4,0,5.5,0,55,0,109.9,0,164.9,0,11.1,3.1,14.3,14.3,15,1.8.1,3.6.2,5.6.3v4.5h-46.5c-.1-1.3-.2-2.6-.4-4.2,3.8-.4,7.3-.6,10.9-1.3,6.2-1.1,8.6-3.9,9-10.2.1-1.5,0-3.1,0-4.6,0-56.9,0-113.8,0-170.7,0-12.6-2.6-15.4-15.3-16.1-1.4,0-2.7-.1-4.3-.2v-4.6c4.6,0,9,0,13.4,0,8.8,0,17.6.1,26.4,0,3.3,0,5.3,1,7.3,3.6,41.7,54.5,83.5,109,125.2,163.5.8,1.1,1.7,2.2,3.2,4.1.1-2.3.2-3.7.2-5.1,0-49.1,0-98.2,0-147.3,0-9.4-2.3-12.1-11.7-13.3-2.6-.3-5.2-.5-8.1-.8v-4.5c1.7,0,3.2,0,4.7,0,20.5.1,41,.3,61.6.2,2.8,0,4.1,1,5.4,3.5,18.2,36.9,36.5,73.7,54.8,110.5,13.4,26.9,30.2,51.5,53.2,71.3,12.1,10.4,25.7,18.3,41.9,20.5,6.3.9,12.5.5,18.5-1.7,27.5-9.8,43.1-30,50.9-57.3.5-1.7.9-3.4,1.8-6.5,3.9,5.7,7.7,10.3,10.5,15.4,7.2,13.2,8.2,9.1-2.2,20.6-17.3,19.3-39.9,29.1-65.1,33.1-14.6,2.4-29.2,5.1-44.1,2.6-6.7-1.1-13.3-2.8-20.7-4.4Z"/>
        <path d="M245.6,81.8v-34.6c12.3,3.1,24.4,5.9,36.3,9.3,78,22.1,145.1,61.9,199.2,122.7,6.3,7,11.7,14.8,17.4,22.4.7.9,1,2.7.6,3.8-3.9,9.6-9,18.5-16.8,26.8-.6-2.8-1.1-4.8-1.6-6.9-5.9-23.6-17.3-43.6-39-56-24.9-14.2-50.3-13.8-75.6-.8-18.7,9.6-33.8,23.1-44.2,41.5-.3.6-.7,1.2-1,1.6-3.9-6.5-7.8-12.9-11.7-19.3-1.7-2.8-1.4-4.7,1.3-7,27-23.6,58.9-33.4,94.2-32.4,11.2.3,22.3,2.4,32.7,3.6-55.1-45.1-118.1-73.3-191.8-74.5Z"/>
        <path d="M1375.5,363.2h-40.9c0-.4-.1-.8-.2-1.2,1.1-.3,2.1-.7,3.2-.7,8.7-.4,14-5.1,17.2-13,7.6-19.3,15.4-38.6,23.1-57.9,17.7-44.5,35.4-89.1,53.2-133.6.8-2,.9-4.6,4.4-4.6,3.5,0,3.7,2.4,4.5,4.5,24.9,62.8,49.8,125.6,74.8,188.4.8,2.1,1.7,4.1,2.7,6.1,2.9,6,7.8,9.3,14.5,9.9,1.5.1,3,.5,4.5.8,0,.4-.1.8-.2,1.3h-63.3c-.1-.3-.2-.5-.3-.8.8-.4,1.6-.9,2.4-1,2.6-.4,5.3-.5,7.8-1.1,5.7-1.5,7.9-5,6.3-10.7-1.4-4.8-3.3-9.4-5.2-14.1-4.6-11.7-9.4-23.3-13.8-35-1.3-3.4-3-4.7-6.4-4.1-.1,0-.3,0-.4,0-8.4-.6-16.2,0-22.9,6.4-6,5.8-12.1,11.2-14,20.6-1-1.8-1.6-3-2.4-4-3.4-4.6-6.6-9.3-10.4-13.6-8.7-10-20.4-10.2-32.3-9.2-.9,0-2,1.3-2.4,2.3-6.4,15.8-12.8,31.5-18.8,47.4-3.6,9.4-.5,13.9,9.7,14.9,2,.2,3.9.5,5.9.7,0,.5,0,.9-.1,1.4ZM1466.9,292.4c-14.4-35.9-28.4-71.1-42.9-107.3-14.4,36.4-28.4,71.6-42.6,107.4,4.8,0,8.9-.4,12.9,0,9.2,1.2,15.9-3.3,21.6-9.5,3-3.2,5.2-7.2,7.7-10.9.7-1.1,1.4-2.2,1.8-3,4.2,5.8,7.7,11.9,12.4,16.9,2.7,3,7,5.4,11,6.1,5.7,1,11.7.3,18.2.3Z"/>
        <path d="M502.9,157v-4.6h65.9v4.2c-2.6.3-5.3.4-7.9.8-8.7,1.3-10.9,4.7-7.8,13,4.5,12,9.4,23.9,14.1,35.8,15.7,39.5,31.4,79,47.1,118.4.5,1.2,1,2.3,1.7,4.1.8-1.9,1.4-3.2,2-4.6,20-50.2,39.9-100.5,59.9-150.7,4.7-11.9,2.3-15.8-10.6-16.5-1.1,0-2.2,0-3.7,0-.1-1.5-.2-2.8-.3-4.5h43.3v4.2c-.7.1-1.2.3-1.8.3-9.8,0-15.5,4.9-19.1,13.9-14.6,37.2-29.5,74.3-44.3,111.5-10.6,26.7-21.2,53.3-31.8,80-.9,2.3-1.6,4-4.8,4-3.1,0-4-1.5-4.9-3.9-25.1-63-50.3-126-75.1-189.1-4-10.3-9.6-17.3-21.9-16.2Z"/>
        <path d="M780.7,363.5v-4c3-.3,6-.5,8.8-1,7-1.1,9.4-4.5,7-11.1-3.6-10.2-7.8-20.3-11.8-30.4-2.3-6-4.6-12-7.3-17.8-.6-1.2-2.5-2.6-3.8-2.7-27.1-.2-54.2-.2-81.2,0-1.3,0-3.2,1.5-3.8,2.7-6.1,14.8-12,29.7-17.9,44.6-.5,1.2-.9,2.4-1.2,3.6-1.8,6.5.2,9.9,6.9,11,3,.5,6.1.7,9.3,1,0,1.2.2,2.4.3,4h-43.4v-4.4c13.4,1.3,18.2-7.5,22.4-18.1,24.6-62.5,49.6-124.8,74.4-187.2,1-2.4,1.8-3.8,4.9-3.9,3.3,0,4.2,1.5,5.2,4.1,24.8,62.6,49.7,125.1,74.3,187.7,4.1,10.5,9.2,18.6,22.2,17.4,0,1.6.1,2.8.2,4.4h-65.8ZM733.2,180.7c-15,37.7-29.6,74.5-44.3,111.6h88.9c-14.9-37.2-29.6-73.9-44.6-111.6Z"/>
        <path d="M881.1,151.8c3.3-2.2,61.8-2.1,64.9.4-2.4.3-4.2.5-6,.7-11.3,1.3-14.1,5.8-10,16.4,7.9,20.1,16,40.1,23.9,60.2,12.6,31.7,25.2,63.4,37.8,95.2.5,1.2,1.1,2.5,1.9,4.4,5.8-14.6,11.3-28.4,16.8-42.2,15.4-38.7,30.8-77.4,46.1-116.1,5-12.5,2.1-17-11.2-17.9-1.1,0-2.1-.3-4.5-.6,1.6-1,2.3-1.8,2.9-1.8,12.6,0,25.1,0,37.7,0,.5,0,1.1.5,2.6,1.4-1.9.5-2.9.9-3.8,1-9,.5-14.5,5.3-17.7,13.6-12.9,32.7-26,65.2-38.9,97.9-12.5,31.3-24.9,62.6-37.4,94-.7,1.8-1,3.9-4,3.9-3,0-3.3-2.1-4-3.9-25.1-62.9-50.2-125.7-75.1-188.7-3.9-9.9-9.2-16.8-20.7-16.8-.3,0-.7-.4-1.4-.8Z"/>
        <path d="M1303.4,364.4h-56.3c0-.3-.1-.6-.2-1,.9-.2,1.8-.6,2.7-.7,9.1-1.2,13.6-5.8,14.6-14.9.2-1.5.2-3.1.2-4.6,0-62.5,0-125,0-187.5s0-2.5,0-3.6c-.6-.3-1-.7-1.3-.7-16.6,0-33.2,0-49.8.4-3.7.1-7.8,1.5-10.9,3.5-2.4,1.5-3.7,4.9-5.3,7.6-.6.9-.6,2.1-.9,3.2-.4,0-.8,0-1.2-.1v-16.3h160.9v16.1c-.3,0-.5.2-.8.2-.4-.7-.9-1.4-1-2.2-.9-5.8-4.5-9.2-9.9-10.7-3.6-1-7.4-1.7-11.1-1.8-14.8-.2-29.6-.1-44.4,0-.8,0-1.6.3-2.7.4v4.6c0,61.6,0,123.3,0,184.9,0,2.5.1,5,.5,7.5,1.3,8.5,5.7,12.7,14.3,13.9.9.1,1.8.4,2.7.5,0,.4,0,.8,0,1.1Z"/>
        <path d="M1116.5,363.1c1.4-.4,2.7-.9,4.1-1.2,9.3-2.5,14.4-9,14.4-18.6,0-57.4,0-114.9,0-172.3,0-9.5-4.7-15.7-13.8-18.5-1.4-.4-2.7-.9-4-2.2,17.9-.9,35.8-.9,53.6-.9,0,.5.2,1.1.2,1.6-1,.4-2.1.8-3.1,1.1-7.8,2.4-12.3,8.1-12.8,16.2,0,1.5,0,3.1,0,4.6,0,56.2,0,112.4,0,168.6,0,12.5,2.8,16.6,14.7,21.1.5.2.8.6,2.3,1.7h-55.2c0-.4-.1-.8-.2-1.1Z"/>
        <path d="M500.7,231c4.5,6.5,8.4,13.1,13.2,19,4.9,6,11.9,8.8,20.3,10-14.8,7.8-27.5,16.5-32.8,33.5-7.1-15.3-17.9-26-34.4-32.3,16.6-5.6,27.4-15.8,33.6-30.2Z"/>
      </g>
    </g>
  </g>
</svg>