<svg xmlns="http://www.w3.org/2000/svg" width="89.908" height="11.808" viewBox="0 0 89.908 11.808"><g transform="translate(0 0)"><path d="M71.272,196.776c2.2-2,4.644-1.389,5.875.361a3.342,3.342,0,0,1,3.361-1.572,2.5,2.5,0,0,1,2.509,2.384,60.6,60.6,0,0,1,.129,6.288c.007.253-.067.383-.347.38-.8-.01-1.607-.016-2.411,0-.5.011-.35-.346-.355-.593-.028-1.5,0-3.006-.078-4.5-.058-1.089-.492-1.519-1.283-1.511-.844.008-1.386.572-1.417,1.612-.044,1.476-.035,2.955-.014,4.431.006.436-.109.6-.56.57-.823-.047-1.906.268-2.4-.144-.517-.428-.119-1.551-.159-2.369A20.362,20.362,0,0,0,74,199.165a1.3,1.3,0,0,0-1.267-1.232,1.231,1.231,0,0,0-1.334,1.233c-.1,1.106-.061,2.225-.083,3.338-.013.67.225,1.557-.112,1.953-.394.462-1.31.131-2,.151-1,.028-1,.008-1-1.025,0-2.359.016-4.718-.012-7.076-.006-.533.125-.751.684-.7a7.445,7.445,0,0,0,1.4,0C70.963,195.748,71.473,195.838,71.272,196.776Z" transform="translate(-25.412 -193.167)" fill="#2e2e2e"/><path d="M156.226,196.815a3.425,3.425,0,0,1,2.654-1.21c2.2-.01,3.387,1.057,3.461,3.274.058,1.759,0,3.522.022,5.283.006.439-.167.517-.55.5-.7-.025-1.4-.036-2.1,0-.473.027-.55-.172-.544-.586.021-1.451.011-2.9.007-4.352,0-1.123-.393-1.631-1.277-1.676a1.508,1.508,0,0,0-1.687,1.6c-.054,1.423-.053,2.849-.021,4.272.012.551-.086.811-.706.74-.788-.091-1.852.33-2.3-.17-.391-.435-.117-1.476-.119-2.25-.006-1.917.018-3.834-.015-5.75-.009-.526.158-.68.658-.644a8.411,8.411,0,0,0,1.553,0C155.988,195.77,156.358,195.978,156.226,196.815Z" transform="translate(-72.459 -193.211)" fill="#2e2e2e"/><path d="M132.054,196.923a3.645,3.645,0,0,1,3.857-1.252,2.835,2.835,0,0,1,2.344,2.975c.094,1.86.029,3.727.054,5.591,0,.38-.177.409-.473.4-.725-.013-1.451-.029-2.175.005-.434.021-.511-.155-.5-.539.02-1.243.012-2.486,0-3.729a9.152,9.152,0,0,0-.065-1.082,1.255,1.255,0,0,0-1.227-1.261,1.462,1.462,0,0,0-1.645,1.1,4.334,4.334,0,0,0-.148,1.3c0,1.217-.009,2.434.006,3.651,0,.356-.019.582-.481.556-.848-.049-1.939.271-2.481-.146-.512-.393-.14-1.547-.15-2.365-.021-1.864.022-3.729-.023-5.592-.015-.608.178-.768.74-.711a10.121,10.121,0,0,0,1.32.007C131.674,195.819,132.425,195.682,132.054,196.923Z" transform="translate(-59.072 -193.189)" fill="#2e2e2e"/><path d="M53.734,199.332c0,.8.027,1.608-.006,2.41a3.215,3.215,0,0,1-2.615,3.31,7.954,7.954,0,0,1-4.371-.069,3.056,3.056,0,0,1-2.36-2.929c-.081-1.811-.049-3.626-.077-5.439-.005-.341.131-.456.46-.45.726.014,1.453.029,2.177,0,.47-.021.553.183.548.6-.016,1.5-.026,3.008.016,4.51a1.421,1.421,0,0,0,1.794,1.5c.834-.1,1.252-.554,1.283-1.56.045-1.476.044-2.955.021-4.432-.007-.468.1-.648.6-.616.672.042,1.349.029,2.022,0,.4-.015.549.111.536.527-.027.88-.008,1.763-.008,2.644Z" transform="translate(-12.157 -193.516)" fill="#2e2e2e"/><path d="M-23.346,195.613a6.679,6.679,0,0,1,2.4.369c.311.106.418.244.205.54a3.248,3.248,0,0,0-.216.411c-.558,1.073-.557,1.071-1.687.864a1.818,1.818,0,0,0-.917-.044c-.3.1-.639.167-.658.547s.257.539.584.62c.375.093.754.17,1.127.272,1.427.386,2.085,1.068,2.2,2.269a2.975,2.975,0,0,1-1.746,3.026,6.226,6.226,0,0,1-5.6-.313c-.244-.127-.355-.276-.193-.537.027-.044.057-.086.081-.132.266-.5.415-1.163.827-1.466.486-.357.959.334,1.482.458a3.514,3.514,0,0,0,1.45.135.668.668,0,0,0,.581-.552.567.567,0,0,0-.443-.647c-.463-.156-.948-.245-1.422-.371-.973-.259-1.826-.684-1.983-1.808a2.769,2.769,0,0,1,1.225-2.969A4.447,4.447,0,0,1-23.346,195.613Z" transform="translate(27.922 -193.21)" fill="#2e2e2e"/><path d="M-6.02,198.563c0,.88-.016,1.76.008,2.64.01.376-.113.493-.484.479-.7-.025-1.4-.035-2.1,0-.461.024-.557-.153-.551-.578.021-1.682-.005-3.365.018-5.048.006-.446-.068-.7-.581-.61-.369.065-.425-.154-.412-.458.016-.388.011-.777,0-1.165-.011-.513-.135-1.08.723-.964.312.042.254-.257.256-.449.007-.543.022-1.088,0-1.63-.018-.385.081-.571.508-.555.724.026,1.45.019,2.175,0,.339-.008.456.124.444.456-.019.543.021,1.089-.012,1.63-.028.451.148.565.578.574,1.277.025,1.276.043,1.276,1.33v.077c0,1.147,0,1.181-1.128,1.14-.574-.021-.774.121-.732.72C-5.978,196.954-6.02,197.76-6.02,198.563Z" transform="translate(18.049 -190.226)" fill="#2e2e2e"/><path d="M10.278,198.726l-.12.2a5.222,5.222,0,0,0-1.512-.28,1.981,1.981,0,0,0-2.078,2.123c-.039,1.139-.041,2.279-.019,3.418.009.469-.064.724-.618.667-.816-.083-1.913.339-2.379-.169-.405-.443-.123-1.523-.126-2.322-.007-1.891.016-3.782-.015-5.673-.008-.518.145-.685.653-.649a11.173,11.173,0,0,0,1.709,0c.6-.05.878.128.771.76a5.825,5.825,0,0,0,0,.733A3.307,3.307,0,0,1,9.5,195.948c.43-.005.609.1.581.559-.035.568-.016,1.14,0,1.71C10.076,198.4,9.981,198.65,10.278,198.726Z" transform="translate(10.578 -193.401)" fill="#2e2e2e"/><path d="M28.278,196.087c-.482-.493-1.475-.083-2.237-.174-.53-.064-.827.1-.813.678-2.811-1.752-5.938-.8-6.724,2-.041.067-.119.113-.119.2a4.926,4.926,0,0,0,1.579,5.387,4.4,4.4,0,0,0,2.685.871,3.679,3.679,0,0,0,2.648-1.184c-.153.811.21.919.767.879a11.015,11.015,0,0,1,1.709,0c.531.045.652-.16.646-.656-.025-1.943,0-3.887-.016-5.831C28.4,197.518,28.723,196.542,28.278,196.087Zm-4.9,6.271a1.933,1.933,0,0,1-2.026-1.98,1.958,1.958,0,0,1,2.009-2.014,1.933,1.933,0,0,1,2.012,2.075A1.9,1.9,0,0,1,23.374,202.357Z" transform="translate(2.353 -193.268)" fill="#2e2e2e"/><path d="M113.511,196.363c0-.419-.138-.536-.535-.519a17.16,17.16,0,0,1-1.865,0c-.52-.035-.864.048-.708.806a4.262,4.262,0,0,0-5.962.312,5.046,5.046,0,0,0,.145,6.727,4.147,4.147,0,0,0,2.683,1.263,3.43,3.43,0,0,0,3.169-1.325c-.237,1.022.231,1.074.843,1.031a13.11,13.11,0,0,1,1.709,0c.412.024.523-.111.52-.52Q113.484,200.249,113.511,196.363Zm-4.976,5.925a1.929,1.929,0,0,1-2.027-1.983,2.018,2.018,0,1,1,2.027,1.983Z" transform="translate(-44.854 -193.198)" fill="#2e2e2e"/></g></svg>