<svg xmlns="http://www.w3.org/2000/svg" width="44.698" height="44.059" viewBox="0 0 44.698 44.059"><g transform="translate(3.318 0)"><g transform="translate(-3.318 0)" fill="none" stroke="#fff" stroke-width="1"><ellipse cx="22.349" cy="22.03" rx="22.349" ry="22.03" stroke="none"/><ellipse cx="22.349" cy="22.03" rx="21.849" ry="21.53" fill="none"/></g><g transform="translate(354.144 -170.962)"><path d="M-132.7,187.467c0-.1,0-.106-.109-.105a4.815,4.815,0,0,1-.764-.066c-.918-.139-3.9-1.7-4.4-4.256a7.786,7.786,0,0,1-.121-.954c0-.121,0-.121-.121-.123H-141.8c-.235,0-.2-.029-.2.206q0,7.581,0,15.163a3.19,3.19,0,0,1-.038.562,3.216,3.216,0,0,1-1.525,2.266,3.2,3.2,0,0,1-2.378.415,4.422,4.422,0,0,1-.768-.253l-.061-.055c-.084-.071-.177-.129-.268-.192a3.1,3.1,0,0,1-1.435-3.081,3.1,3.1,0,0,1,2.162-2.669,2.9,2.9,0,0,1,1.162-.173,3.436,3.436,0,0,1,.759.117c.086.024.132-.006.137-.1,0-.032,0-.064,0-.1,0-.907-.034-2.889-.038-2.894,0-.261,0-.523.007-.784,0-.075-.036-.088-.1-.1a7.371,7.371,0,0,0-1.413-.032,7.121,7.121,0,0,0-1.9.4,7.087,7.087,0,0,0-2.587,1.628,7.084,7.084,0,0,0-1.509,2.165,7.029,7.029,0,0,0-.61,2.453,7.066,7.066,0,0,0,.015,1.112,7.088,7.088,0,0,0,.3,1.5,7.111,7.111,0,0,0,2.42,3.48,1.691,1.691,0,0,0,.371.256h0l.177.157a3.752,3.752,0,0,0,.6.365,7.128,7.128,0,0,0,4.1.724,7.059,7.059,0,0,0,4.645-2.479,7.031,7.031,0,0,0,1.722-4.675c.015-2.517,0-5.034,0-7.551,0-.06-.035-.146.032-.175s.1.045.152.077a9.272,9.272,0,0,0,3.041,1.31,8.584,8.584,0,0,0,1.935.233c.207,0,.234-.011.234-.215C-132.655,190.148-132.7,187.7-132.7,187.467Z" transform="translate(-192.047 0)" fill="#fff"/></g></g></svg>