<svg xmlns="http://www.w3.org/2000/svg" width="44.059" height="44.059" viewBox="0 0 44.059 44.059"><g transform="translate(0.333 0)"><g transform="translate(-0.333 0)" fill="none" stroke="#fff" stroke-width="1"><circle cx="22.03" cy="22.03" r="22.03" stroke="none"/><circle cx="22.03" cy="22.03" r="21.53" fill="none"/></g><path d="M-393.17,196.325l.6-3.912h-3.754v-2.539a1.956,1.956,0,0,1,2.205-2.113h1.707V184.43a20.812,20.812,0,0,0-3.03-.264c-3.091,0-5.112,1.874-5.112,5.266v2.981h-3.436v3.912h3.436v9.457a13.629,13.629,0,0,0,2.115.165,13.63,13.63,0,0,0,2.115-.165v-9.457Z" transform="translate(420.656 -173.166)" fill="#fff"/></g></svg>