<svg xmlns="http://www.w3.org/2000/svg" width="59.742" height="31.573" viewBox="0 0 59.742 31.573"><g transform="translate(0 0)"><path d="M472.555-303.539h.306c.041.019.086,0,.127.017a2.8,2.8,0,0,1,1.175.44,2.3,2.3,0,0,1,.948,1.489c.036.173.051.35.076.526a.249.249,0,0,1,.007.092q0,2.007,0,4.015a.23.23,0,0,1-.007.092.913.913,0,0,1-.558.695c-.014.006-.029.01-.029.029h-.537a.844.844,0,0,1-.641-.728,3.637,3.637,0,0,1-.024-.442q0-1.522,0-3.044a2.282,2.282,0,0,0-.213-.961,1.04,1.04,0,0,0-.964-.623,2,2,0,0,0-.6.065,1.323,1.323,0,0,0-.86.749,1.889,1.889,0,0,0-.215.895c.013,1.085,0,2.17.005,3.254a.886.886,0,0,1-.328.693.628.628,0,0,1-.313.142h-.56a.962.962,0,0,1-.507-.494.715.715,0,0,1-.067-.313c0-.05,0-.1,0-.152q0-3.051,0-6.1c0-.046,0-.093-.005-.139.025-.039.063-.02.095-.02.517,0,1.033,0,1.55,0,.091,0,.12.022.117.116-.007.237,0,.474,0,.711,0,.032-.029.08.03.1a2.359,2.359,0,0,1,.822-.783,2.7,2.7,0,0,1,.832-.264l.194-.029C472.455-303.54,472.507-303.518,472.555-303.539Z" transform="translate(-422.588 327.717)" fill="#2e2e2e"/><path d="M203.27-302.168c-.133.321-.269.642-.4.964q-.574,1.411-1.146,2.823c-.3.749-.6,1.5-.914,2.246a2.835,2.835,0,0,1-.326.684,1.335,1.335,0,0,1-.582.439c-.018.007-.039.006-.043.03h-.724c-.093-.076-.216-.089-.316-.161a1.47,1.47,0,0,1-.522-.695c-.136-.353-.283-.7-.425-1.052s-.277-.687-.417-1.03c-.133-.327-.267-.653-.4-.979q-.184-.452-.368-.9c-.14-.348-.279-.7-.419-1.043s-.286-.707-.429-1.061a1.547,1.547,0,0,1-.111-.281c.021-.024.05-.016.076-.016h1.764c.024,0,.056-.014.071.021.082.279.2.546.3.818q.477,1.268.96,2.535l.572,1.514c0,.006.011.01.024.021a1.815,1.815,0,0,0,.173-.407c.11-.289.216-.58.331-.867.147-.371.281-.748.422-1.122.209-.552.421-1.1.629-1.654.1-.272.2-.546.3-.819.017-.051.061-.04.1-.04q.867,0,1.734,0C203.216-302.2,203.26-302.222,203.27-302.168Z" transform="translate(-184.335 326.553)" fill="#2e2e2e"/><path d="M113.841-302.187c-.127.262-.223.537-.333.806q-.655,1.609-1.309,3.218c-.3.745-.609,1.49-.906,2.237a1.588,1.588,0,0,1-.537.751c-.1.073-.225.1-.327.176h-.7a1.21,1.21,0,0,1-.852-.789q-.832-2.041-1.658-4.083-.414-1.021-.831-2.041a2.884,2.884,0,0,1-.09-.275v-.023a.13.13,0,0,1,.079-.011h1.748c.029,0,.063-.015.085.019.073.254.178.5.271.742q.516,1.37,1.038,2.739.257.677.512,1.354c.009.023.015.051.038.051s.028-.029.036-.051c.217-.572.438-1.143.655-1.716.188-.5.372-.994.559-1.491.162-.429.329-.856.49-1.286a2.279,2.279,0,0,1,.138-.356c.305-.015.611,0,.916-.006q.435,0,.87,0C113.769-302.219,113.822-302.25,113.841-302.187Z" transform="translate(-106.297 326.572)" fill="#2e2e2e"/><path d="M528.924-313.249c-.054-.057-.134-.07-.2-.115a.865.865,0,0,1-.369-.632.428.428,0,0,1-.007-.127q0-2.157,0-4.314a.23.23,0,0,0-.012-.125c-.224,0-.449-.009-.674-.006-.077,0-.1-.022-.1-.1q0-.849,0-1.7c0-.076.02-.1.1-.1.225,0,.449,0,.674,0a.229.229,0,0,0,.012-.125q0-1.216,0-2.432c0-.039-.023-.085.02-.118.529,0,1.057.007,1.586,0,.114,0,.15.022.149.145q-.006,4.374,0,8.747a.955.955,0,0,1-.625,1Z" transform="translate(-473.901 344.822)" fill="#2e2e2e"/><path d="M174.323-294.971a.956.956,0,0,1-.546-.581,1.061,1.061,0,0,1-.033-.351q0-3.067,0-6.134c0-.047,0-.093,0-.14.021-.026.05-.016.076-.016.529,0,1.058,0,1.587,0,.076,0,.1.02.1.1q0,3.137,0,6.275a.146.146,0,0,1-.008.057.9.9,0,0,1-.548.757c-.017.007-.037.013-.04.037Z" transform="translate(-165.149 326.544)" fill="#2e2e2e"/><path d="M108.209-302.272a.3.3,0,0,0-.057-.011l-1.855,0v-.023c.6,0,1.19,0,1.785,0C108.125-302.3,108.178-302.325,108.209-302.272Z" transform="translate(-106.297 326.642)" fill="#2e2e2e"/><path d="M137.415-383.782a1.145,1.145,0,0,1-.939-.592,4.511,4.511,0,0,1-.25-.578c-.149-.356-.3-.711-.443-1.068-.1-.256-.2-.515-.305-.772-.131-.327-.266-.653-.4-.979q-.209-.514-.416-1.028l-.421-1.043c-.109-.27-.214-.542-.33-.81-.049-.114-.093-.23-.14-.345,0-.052.045-.034.071-.034H135.6c.035,0,.071,0,.089.038.113.358.257.7.389,1.055q.551,1.462,1.105,2.922c.106.279.211.559.319.838.008.021,0,.063.039.059.028,0,.029-.034.037-.053.167-.459.344-.915.52-1.37.187-.481.355-.969.538-1.452.227-.6.46-1.193.69-1.79.027-.07.051-.14.077-.21.017-.033.047-.035.079-.035.6,0,1.2,0,1.8,0a.073.073,0,0,1,.032.012q-.762,1.881-1.524,3.761c-.371.916-.732,1.837-1.122,2.745a1.177,1.177,0,0,1-.994.73A.976.976,0,0,1,137.415-383.782Z" transform="translate(-130.271 404.066)" fill="#2e2e2e"/><path d="M265.934-389.144a3.258,3.258,0,0,1,.244-1.021,3.824,3.824,0,0,1,.611-1.007,3.608,3.608,0,0,1,1.255-.972,3.822,3.822,0,0,1,1.326-.342,4.2,4.2,0,0,1,.535,0,3.822,3.822,0,0,1,2.126.863c.265.217.268.213.028.451-.284.282-.571.562-.853.847-.058.059-.09.066-.157,0a2.086,2.086,0,0,0-1.093-.529,1.4,1.4,0,0,0-.471-.019c-.04.017-.086,0-.126.017a2.075,2.075,0,0,0-1.763,1.557,1.221,1.221,0,0,0-.05.4.566.566,0,0,0,0,.228,1.923,1.923,0,0,0,.493,1.261,2.036,2.036,0,0,0,1.2.7.8.8,0,0,0,.149.013c.046.023.1,0,.145.017h.211c.047-.019.1.006.146-.017a1.941,1.941,0,0,0,.961-.375c.022-.015.045-.03.065-.046.073-.06.144-.17.229-.15s.143.123.212.192c.284.282.567.566.853.846.055.053.055.082,0,.135a3.642,3.642,0,0,1-1.824.959,1.191,1.191,0,0,1-.269.05c-.039.019-.084,0-.123.018l-.134.006a2.652,2.652,0,0,1-.442,0l-.134-.006c-.039-.021-.084,0-.123-.018a3.643,3.643,0,0,1-1.756-.7,3.594,3.594,0,0,1-1.135-1.4,3.657,3.657,0,0,1-.306-.974,1.682,1.682,0,0,0-.029-.237c-.02-.055.006-.116-.017-.171q0-.2,0-.405C265.941-389.029,265.914-389.089,265.934-389.144Z" transform="translate(-245.582 405.34)" fill="#2e2e2e"/><path d="M326.2-412.084q0,1.8,0,3.592,0,2.7,0,5.4a.9.9,0,0,1-.506.846.947.947,0,0,1-.264.082.637.637,0,0,1-.209,0,.852.852,0,0,1-.775-.8.381.381,0,0,1-.007-.127q0-4.432,0-8.864c0-.162-.016-.143.143-.143h1.493A.222.222,0,0,1,326.2-412.084Z" transform="translate(-296.647 422.447)" fill="#2e2e2e"/><path d="M423.953-385.59a.894.894,0,0,1-.775.8.639.639,0,0,1-.209,0,.869.869,0,0,1-.763-.716,1.078,1.078,0,0,1,0-.243q0-3.066,0-6.132c0-.046,0-.093,0-.14.028-.032.066-.017.1-.017.516,0,1.032,0,1.549,0,.093,0,.117.027.116.117-.006.283,0,.566,0,.85,0,.032-.029.08.031.1a2.472,2.472,0,0,1,1.8-1.193c.056-.019.116.006.172-.017h.167c.056.022.117,0,.173.017a2.436,2.436,0,0,0,.346.052c.051.01.064.04.064.091,0,.515,0,1.03,0,1.545,0,.037.009.085-.057.071a4.931,4.931,0,0,0-.53-.1c-.039-.02-.084,0-.124-.017a1.875,1.875,0,0,0-.421,0c-.039.019-.083,0-.121.018a1.588,1.588,0,0,0-1,.509,2.423,2.423,0,0,0-.484.88.229.229,0,0,0,0,.058.248.248,0,0,0-.011.126q0,1.612,0,3.225A.378.378,0,0,1,423.953-385.59Z" transform="translate(-381.952 405.075)" fill="#2e2e2e"/><path d="M112.456-383.806a.851.851,0,0,1-.751-.751.321.321,0,0,1-.007-.116q0-3.124,0-6.248c0-.134,0-.134.129-.134.505,0,1.011,0,1.516,0,.038,0,.086-.027.115.023,0,.035-.008.069-.008.1q0,3.07,0,6.14c0,.035,0,.069.008.1-.021.048,0,.1-.017.15a1.016,1.016,0,0,1-.226.446.89.89,0,0,1-.525.281A.691.691,0,0,1,112.456-383.806Z" transform="translate(-111.008 404.089)" fill="#2e2e2e"/><path d="M159.6-459.888a1.3,1.3,0,0,1,.421.1.214.214,0,0,1,.037.155c0,.669,0,1.337,0,2.006a.294.294,0,0,1-.015.1,1.185,1.185,0,0,1-.4.1,1.356,1.356,0,0,1-.3,0,1.153,1.153,0,0,1-.617-.192,1.1,1.1,0,0,1-.455-.685c-.021-.083-.011-.167-.03-.248a.608.608,0,0,1,0-.208,1.3,1.3,0,0,1,.134-.533,1.022,1.022,0,0,1,.8-.563c.072-.013.145-.02.218-.029A.633.633,0,0,1,159.6-459.888Z" transform="translate(-151.62 464.156)" fill="#2e2e2e"/><path d="M115.714-425.271a1.539,1.539,0,0,1,.568.209.238.238,0,0,1,.087.073.211.211,0,0,1,.037.143q0,.925,0,1.849a.262.262,0,0,1-.038.155,1.289,1.289,0,0,1-1.194.224c-.007,0-.012-.009-.018-.013a.38.38,0,0,1-.015-.149q0-1.094,0-2.187a.637.637,0,0,0-.031-.229,1.3,1.3,0,0,1,.3-.075A1.333,1.333,0,0,1,115.714-425.271Z" transform="translate(-113.987 433.948)" fill="#2e2e2e"/><path d="M346.873-489.3a.424.424,0,0,1-.438-.3,1.85,1.85,0,0,1-.057-.333c-.021-.071.008-.146-.017-.217v-.078c.025-.071,0-.146.017-.217a1.147,1.147,0,0,1,.075-.378c.069-.2.248-.225.42-.257.055-.02.115.006.17-.017h.5c.047.021.1,0,.147.016a.465.465,0,0,1,.47.476.55.55,0,0,0,.025.089c.019.047,0,.1.017.147v.359c-.023.047,0,.1-.018.146s-.02.106-.03.159a.469.469,0,0,1-.465.406c-.055.019-.116-.006-.171.017h-.474C346.989-489.309,346.929-489.283,346.873-489.3Z" transform="translate(-315.777 491.384)" fill="#2e2e2e"/><path d="M548.1-359.78a.379.379,0,0,1-.068.013c-.462.008-.924.024-1.386-.014-.2-.017-.225-.029-.238-.235a11.7,11.7,0,0,1,0-1.594.159.159,0,0,1,.156-.167,3.991,3.991,0,0,1,.6-.034,7.665,7.665,0,0,1,.86.018c-.125.043-.137.138-.136.255.005.511,0,1.022,0,1.533,0,.154,0,.154.153.195A.088.088,0,0,1,548.1-359.78Z" transform="translate(-490.321 378.568)" fill="#2e2e2e"/><path d="M408.971-475.35a.4.4,0,0,1-.424-.254,1.062,1.062,0,0,1-.047-.241c-.018-.048,0-.1-.017-.148v-.472c.021-.048,0-.1.017-.149a1.243,1.243,0,0,1,.048-.24c.069-.194.232-.222.4-.244.038-.005.077-.007.115-.011a5.655,5.655,0,0,1,.629,0,.658.658,0,0,1,.444.154.806.806,0,0,1,.122.341c.019.047-.005.1.017.146v.5c-.019.04,0,.085-.016.125-.037.158-.045.33-.211.425a.557.557,0,0,1-.261.069c-.111.022-.225-.009-.335.017a.342.342,0,0,0-.145,0C409.2-475.359,409.082-475.328,408.971-475.35Z" transform="translate(-369.984 479.182)" fill="#2e2e2e"/><path d="M285.135-493.3a7.21,7.21,0,0,1,.763.019.586.586,0,0,1,.582.545c.009.037.018.074.029.11s0,.085.018.124l.006.156a.286.286,0,0,1,0,.139l-.006.158c-.021.038,0,.083-.018.122a1.189,1.189,0,0,1-.164.449.7.7,0,0,1-.564.232,4.641,4.641,0,0,1-.582,0l-.162-.014a.2.2,0,0,1-.016-.1c0-.621,0-1.242,0-1.863a.184.184,0,0,1,0-.034C285.044-493.32,285.1-493.275,285.135-493.3Z" transform="translate(-262.251 493.306)" fill="#2e2e2e"/><path d="M216.913-479.882a.912.912,0,0,1-.448-.14.853.853,0,0,1-.34-.52,2.161,2.161,0,0,1-.052-.553c.022-.038,0-.082.017-.121a1.229,1.229,0,0,1,.148-.5.809.809,0,0,1,.641-.379l.057-.009c.087-.021.178.008.265-.017h.029c.036.024.09-.011.119.037a.223.223,0,0,1,.019.1c0,.694,0,1.387,0,2.081a.055.055,0,0,1-.019.039h-.264C217.028-479.888,216.968-479.863,216.913-479.882Z" transform="translate(-202.088 483.551)" fill="#2e2e2e"/><path d="M561.141-302.1c.042.022.021.061.022.092,0,.614,0,1.229,0,1.843,0,.089-.025.109-.111.109q-.91-.005-1.821,0c-.085,0-.122-.013-.121-.113.005-.611,0-1.221,0-1.832,0-.079.017-.107.1-.105.346.006.693,0,1.038.006a.253.253,0,0,1,.037.189c0,.536,0,1.072,0,1.609,0,.191,0,.191.2.191h.408c.208,0,.208,0,.208-.2,0-.532,0-1.065,0-1.6C561.1-301.978,561.091-302.047,561.141-302.1Z" transform="translate(-501.425 326.469)" fill="#2e2e2e"/><path d="M520.7-412.817a1.514,1.514,0,0,1,.37.02.2.2,0,0,1,.174.175,1.125,1.125,0,0,1,.022.161,10.658,10.658,0,0,1-.011,1.362c-.022.23-.066.272-.3.287a7.3,7.3,0,0,1-.8.005.217.217,0,0,1-.038-.155q0-.851,0-1.7c0-.156.01-.165.165-.162A3.372,3.372,0,0,1,520.7-412.817Z" transform="translate(-467.399 423.083)" fill="#2e2e2e"/><path d="M471.6-451.44a4.019,4.019,0,0,1,.778.021.279.279,0,0,1,.272.284,6.35,6.35,0,0,1,0,1.243c-.02.208-.1.285-.309.315a.914.914,0,0,1-.266.009c-.143.02-.287,0-.43.009-.05,0-.068-.028-.077-.07a.5.5,0,0,1-.008-.1q0-.769,0-1.539A.234.234,0,0,1,471.6-451.44Z" transform="translate(-425.028 456.783)" fill="#2e2e2e"/><path d="M225.965-479.831c-.047-.035-.029-.085-.029-.129q0-1.046,0-2.092a.4.4,0,0,1,.186,0,1.047,1.047,0,0,1,.527.216,1.031,1.031,0,0,1,.287.606,1.624,1.624,0,0,1-.05.79.8.8,0,0,1-.764.612A.347.347,0,0,1,225.965-479.831Z" transform="translate(-210.692 483.498)" fill="#2e2e2e"/><path d="M108.8-424.628c.05,0,.068.02.068.069q0,1.223,0,2.446a.152.152,0,0,1-.021.051,1.166,1.166,0,0,1-.787-.627,1.325,1.325,0,0,1,.116-1.5A1.107,1.107,0,0,1,108.8-424.628Z" transform="translate(-107.677 433.38)" fill="#2e2e2e"/><path d="M514.573-412.841c-.144,0-.288.008-.432,0-.1,0-.117.031-.116.12,0,.63,0,1.26,0,1.89a3.767,3.767,0,0,1-.708-.021.2.2,0,0,1-.183-.179,2.116,2.116,0,0,1-.035-.359,10.686,10.686,0,0,1,.015-1.117c.023-.264.076-.321.342-.334A10.418,10.418,0,0,1,514.573-412.841Z" transform="translate(-461.268 423.107)" fill="#2e2e2e"/><path d="M568.94-302.062c0,.633,0,1.266,0,1.9,0,.1-.03.132-.132.129-.214-.008-.427-.006-.641,0-.091,0-.12-.024-.119-.117,0-.637,0-1.274,0-1.911Z" transform="translate(-509.225 326.429)" fill="#2e2e2e"/><path d="M466.018-451.426c0,.583,0,1.167,0,1.75,0,.089.021.126.116.12.12-.008.241,0,.362,0-.3.026-.594,0-.891,0-.332,0-.423-.166-.422-.427,0-.046,0-.093-.008-.139q-.018-.373,0-.745c.009-.088.013-.177.026-.264a.284.284,0,0,1,.264-.276A2.332,2.332,0,0,1,466.018-451.426Z" transform="translate(-419.446 456.769)" fill="#2e2e2e"/><path d="M172.267-456.8c-.041-.038-.023-.088-.023-.132q0-1.066,0-2.131a.9.9,0,0,1,.583.52,1.388,1.388,0,0,1-.1,1.392A.873.873,0,0,1,172.267-456.8Z" transform="translate(-163.839 463.43)" fill="#2e2e2e"/><path d="M558.227-359.635c-.239-.008-.239-.008-.239-.251v-1.581c0-.173,0-.173.17-.181.421.009.377.043.4.359a11.5,11.5,0,0,1,0,1.348C558.535-359.657,558.512-359.635,558.227-359.635Z" transform="translate(-500.443 378.423)" fill="#2e2e2e"/><path d="M281-493.181a.2.2,0,0,1,.023.123q0,.891,0,1.781a.174.174,0,0,1-.021.112.588.588,0,0,1-.562-.549c-.013-.079-.008-.159-.028-.236s.007-.131-.017-.194v-.076c.024-.063,0-.131.017-.195a1.564,1.564,0,0,1,.1-.44.559.559,0,0,1,.469-.333C280.987-493.2,281-493.194,281-493.181Z" transform="translate(-258.215 493.209)" fill="#2e2e2e"/><path d="M124.984-420.854V-423a1.188,1.188,0,0,1,.44.549,2.048,2.048,0,0,1,.1.341,1.634,1.634,0,0,1,0,.349,1.467,1.467,0,0,1-.358.752A1.476,1.476,0,0,1,124.984-420.854Z" transform="translate(-122.603 431.961)" fill="#2e2e2e"/><path d="M326.112-412.171a1.238,1.238,0,0,0-.29-.01c-.443,0-.887,0-1.33,0-.1,0-.135.022-.135.132q.006,2.77,0,5.54,0,1.732,0,3.464c-.033-.037-.019-.082-.019-.123q0-4.441,0-8.883c0-.11.026-.145.14-.144.505.006,1.011,0,1.516,0C326.033-412.195,326.079-412.211,326.112-412.171Z" transform="translate(-296.558 422.534)" fill="#2e2e2e"/><path d="M388.974-314.04c0-.05,0-.1,0-.151q0-4.4,0-8.8a.388.388,0,0,0-.011-.15c.059.034.032.091.032.137q0,3.189,0,6.378,0,1.224,0,2.448C388.993-314.13,389.008-314.081,388.974-314.04Z" transform="translate(-352.949 344.82)" fill="#2e2e2e"/><path d="M113.366-391.1a.231.231,0,0,0-.125-.016c-.5,0-1,0-1.5,0-.1,0-.128.023-.128.127q.006,3.183,0,6.365c-.033-.037-.019-.082-.019-.123q0-3.126,0-6.252c0-.105.025-.139.135-.138.506.006,1.011,0,1.517,0C113.285-391.135,113.339-391.16,113.366-391.1Z" transform="translate(-110.917 404.159)" fill="#2e2e2e"/><path d="M175.494-295.85q0-.944,0-1.888,0-2.2,0-4.4c0-.11-.032-.132-.134-.131-.5.005-.995,0-1.492,0-.042,0-.085.006-.127.009.026-.044.069-.028.105-.028.517,0,1.034,0,1.551,0,.092,0,.119.025.119.118q0,3.112,0,6.224C175.514-295.916,175.523-295.879,175.494-295.85Z" transform="translate(-165.149 326.629)" fill="#2e2e2e"/><path d="M533.6-287.212c.035.022.018.056.018.084q0,2.241,0,4.483c-.034-.041-.018-.09-.018-.135Q533.6-285,533.6-287.212Z" transform="translate(-479.157 313.47)" fill="#2e2e2e"/><path d="M519.169-279.938v-4.2c.032.037.019.082.019.123q0,1.977,0,3.953C519.188-280.02,519.2-279.975,519.169-279.938Z" transform="translate(-466.57 310.787)" fill="#2e2e2e"/><path d="M435.964-364.2q0-1.695,0-3.39a.111.111,0,0,1,.021-.088q0,1.683,0,3.367C435.984-364.272,436-364.231,435.964-364.2Z" transform="translate(-393.964 383.683)" fill="#2e2e2e"/><path d="M424.011-390.054c-.006.009-.011.026-.018.027-.042.006-.022-.029-.022-.043,0-.186,0-.373,0-.559,0-.136,0-.272,0-.408,0-.046-.008-.071-.063-.07-.563.007-1.126-.011-1.689.01.025-.045.068-.029.1-.029.516,0,1.032,0,1.548,0,.1,0,.124.032.122.126-.006.275,0,.551,0,.826C423.992-390.136,423.978-390.091,424.011-390.054Z" transform="translate(-381.971 404.149)" fill="#2e2e2e"/><path d="M470.557-301.357c-.033.015-.035.015-.035-.014,0-.136,0-.271,0-.407s0-.279,0-.419c0-.042,0-.074-.06-.074-.558,0-1.117,0-1.675.006a.068.068,0,0,0-.022.008c.022-.049.066-.033.1-.033.52,0,1.041,0,1.561,0,.088,0,.113.027.112.113-.005.233,0,.466,0,.7C470.539-301.438,470.525-301.393,470.557-301.357Z" transform="translate(-422.588 326.628)" fill="#2e2e2e"/><path d="M533.616-323.141a.278.278,0,0,0-.014.137q0,1.209,0,2.419c0,.039.022.085-.018.119q0-1.269,0-2.538C533.584-323.05,533.557-323.107,533.616-323.141Z" transform="translate(-479.143 344.822)" fill="#2e2e2e"/><path d="M396.706-391.084a.82.82,0,0,0-.1-.013c-.516,0-1.032,0-1.548,0-.089,0-.111.025-.108.11.006.2,0,.4,0,.6,0,.019.034.076-.036.059.037-.035.021-.081.021-.122,0-.194,0-.388,0-.583,0-.064.02-.09.087-.09.536,0,1.073,0,1.609,0C396.659-391.118,396.692-391.123,396.706-391.084Z" transform="translate(-358.143 404.14)" fill="#2e2e2e"/><path d="M241.811-302.246c-.025-.047-.069-.026-.1-.026q-.848,0-1.7,0c-.042,0-.086-.009-.116.033,0-.059.045-.052.083-.052q.888,0,1.776,0C241.78-302.291,241.835-302.312,241.811-302.246Z" transform="translate(-222.876 326.631)" fill="#2e2e2e"/><path d="M135.6-391.095c-.025-.031-.06-.029-.1-.029h-1.738c-.028,0-.064-.014-.081.025-.023-.028-.01-.043.02-.045.047,0,.093,0,.14,0,.544,0,1.089,0,1.633,0C135.525-391.143,135.59-391.175,135.6-391.095Z" transform="translate(-130.19 404.166)" fill="#2e2e2e"/><path d="M179.858-391.087l-1.827,0a.1.1,0,0,0-.085.027c.005-.05.042-.047.078-.047h1.813a.032.032,0,0,1,.021.005S179.858-391.094,179.858-391.087Z" transform="translate(-168.818 404.134)" fill="#2e2e2e"/><path d="M152.545-302.283c-.029-.049-.077-.025-.116-.025q-.889,0-1.778,0c.033-.03.074-.018.112-.018.563,0,1.126,0,1.69,0C152.482-302.327,152.548-302.368,152.545-302.283Z" transform="translate(-145 326.668)" fill="#2e2e2e"/><path d="M197.639-302.257a.61.61,0,0,0-.091-.013H195.8a.557.557,0,0,0-.069.008c.026-.043.069-.028.106-.028h1.7C197.573-302.29,197.617-302.306,197.639-302.257Z" transform="translate(-184.335 326.629)" fill="#2e2e2e"/><path d="M457.174-389.948c.053,0,.052-.032.051-.069,0-.517,0-1.034,0-1.551a.084.084,0,0,0-.058-.087c.055-.007.076.018.076.073q0,.789,0,1.578C457.243-389.959,457.242-389.911,457.174-389.948Z" transform="translate(-412.468 404.609)" fill="#2e2e2e"/><path d="M306.321-302.26c-.583-.007-1.167-.011-1.75,0,.024-.037.062-.026.095-.026h1.558C306.258-302.284,306.3-302.294,306.321-302.26Z" transform="translate(-279.311 326.623)" fill="#2e2e2e"/><path d="M465.07-446.971v.745a2.354,2.354,0,0,1-.018-.518A.421.421,0,0,1,465.07-446.971Z" transform="translate(-419.342 452.876)" fill="#2e2e2e"/><path d="M413.679-477.209h-.629A2.136,2.136,0,0,1,413.679-477.209Z" transform="translate(-373.97 479.282)" fill="#2e2e2e"/><path d="M286.431-477.169h.582A1.788,1.788,0,0,1,286.431-477.169Z" transform="translate(-263.482 479.227)" fill="#2e2e2e"/><path d="M400.936-276.628q0,.279,0,.559A1.6,1.6,0,0,1,400.936-276.628Z" transform="translate(-363.378 304.235)" fill="#2e2e2e"/><path d="M293.561-392.59h-.535A1.526,1.526,0,0,1,293.561-392.59Z" transform="translate(-269.237 405.444)" fill="#2e2e2e"/><path d="M330.023-276.445q0,.256,0,.512A1.376,1.376,0,0,1,330.023-276.445Z" transform="translate(-301.5 304.075)" fill="#2e2e2e"/><path d="M293.392-334.117h.442A1.02,1.02,0,0,1,293.392-334.117Z" transform="translate(-269.557 354.4)" fill="#2e2e2e"/><path d="M224.492-334.118h.442A1.02,1.02,0,0,1,224.492-334.118Z" transform="translate(-209.434 354.401)" fill="#2e2e2e"/><path d="M377.5-334.118h.372A.747.747,0,0,1,377.5-334.118Z" transform="translate(-342.949 354.401)" fill="#2e2e2e"/><path d="M129.229-415.668v-.349A.634.634,0,0,1,129.229-415.668Z" transform="translate(-126.307 425.865)" fill="#2e2e2e"/><path d="M416.087-463.23a1.922,1.922,0,0,1,.335-.017A1.055,1.055,0,0,1,416.087-463.23Z" transform="translate(-376.62 467.079)" fill="#2e2e2e"/><path d="M457.062-276.109a1.766,1.766,0,0,1-.017-.336A1.045,1.045,0,0,1,457.062-276.109Z" transform="translate(-412.359 304.075)" fill="#2e2e2e"/><path d="M412.317-463.248a1.919,1.919,0,0,1,.335.017A1.044,1.044,0,0,1,412.317-463.248Z" transform="translate(-373.331 467.08)" fill="#2e2e2e"/><path d="M117.784-425.372h-.3A.5.5,0,0,1,117.784-425.372Z" transform="translate(-116.057 434.05)" fill="#2e2e2e"/><path d="M166.958-440.532h.3A.5.5,0,0,1,166.958-440.532Z" transform="translate(-159.23 447.258)" fill="#2e2e2e"/><path d="M457.049-272a1.485,1.485,0,0,1,.017-.313A.936.936,0,0,1,457.049-272Z" transform="translate(-412.363 300.472)" fill="#2e2e2e"/><path d="M225.444-482.143l-.186,0-.1-.02A.765.765,0,0,1,225.444-482.143Z" transform="translate(-210.014 483.587)" fill="#2e2e2e"/><path d="M431.219-303.741a1.325,1.325,0,0,1-.288-.017A.811.811,0,0,1,431.219-303.741Z" transform="translate(-389.573 327.912)" fill="#2e2e2e"/><path d="M286.534-303.758a1.363,1.363,0,0,1-.289.017A.782.782,0,0,1,286.534-303.758Z" transform="translate(-263.32 327.913)" fill="#2e2e2e"/><path d="M259.3-276.812a1.373,1.373,0,0,1-.017.289A.786.786,0,0,1,259.3-276.812Z" transform="translate(-239.792 304.395)" fill="#2e2e2e"/><path d="M223.111-482.158a1.048,1.048,0,0,1-.265.017A.681.681,0,0,1,223.111-482.158Z" transform="translate(-207.998 483.585)" fill="#2e2e2e"/><path d="M394.909-341.735c.034-.027.037,0,.038.023,0,.062,0,.124,0,.186C394.9-341.589,394.964-341.673,394.909-341.735Z" transform="translate(-358.14 361.058)" fill="#2e2e2e"/><path d="M428.891-303.756a1.135,1.135,0,0,1-.266.016A.686.686,0,0,1,428.891-303.756Z" transform="translate(-387.561 327.911)" fill="#2e2e2e"/><path d="M259.289-274.33a1.163,1.163,0,0,1,.017.266A.691.691,0,0,1,259.289-274.33Z" transform="translate(-239.794 302.23)" fill="#2e2e2e"/><path d="M162.374-334.114h.255A.366.366,0,0,1,162.374-334.114Z" transform="translate(-155.23 354.397)" fill="#2e2e2e"/><path d="M117.662-334.121h.232A.289.289,0,0,1,117.662-334.121Z" transform="translate(-116.214 354.403)" fill="#2e2e2e"/><path d="M401.137-334.122h.232A.289.289,0,0,1,401.137-334.122Z" transform="translate(-363.575 354.404)" fill="#2e2e2e"/><path d="M330.591-334.116h.209A.251.251,0,0,1,330.591-334.116Z" transform="translate(-302.016 354.4)" fill="#2e2e2e"/><path d="M428.258-334.118h.209A.251.251,0,0,1,428.258-334.118Z" transform="translate(-387.241 354.401)" fill="#2e2e2e"/><path d="M197.007-365.829a.752.752,0,0,1-.017.219C196.994-365.683,196.968-365.758,197.007-365.829Z" transform="translate(-185.432 382.072)" fill="#2e2e2e"/><path d="M196.989-362.438a.728.728,0,0,1,.018.22C196.968-362.289,196.994-362.364,196.989-362.438Z" transform="translate(-185.432 379.113)" fill="#2e2e2e"/><path d="M288.946-303.736a.769.769,0,0,1-.22-.017C288.8-303.749,288.875-303.775,288.946-303.736Z" transform="translate(-265.485 327.908)" fill="#2e2e2e"/><path d="M167.531-459.985h-.208A.251.251,0,0,1,167.531-459.985Z" transform="translate(-159.548 464.252)" fill="#2e2e2e"/><path d="M158.15-451v.208A.246.246,0,0,1,158.15-451Z" transform="translate(-151.523 456.391)" fill="#2e2e2e"/><path d="M346.349-485.984a.662.662,0,0,1-.017.217C346.336-485.839,346.311-485.914,346.349-485.984Z" transform="translate(-315.748 486.919)" fill="#2e2e2e"/><path d="M278.606-364.017a.438.438,0,0,1,0-.228Z" transform="translate(-256.641 380.69)" fill="#2e2e2e"/><path d="M346.332-483.667a.671.671,0,0,1,.017.217C346.311-483.52,346.337-483.595,346.332-483.667Z" transform="translate(-315.748 484.898)" fill="#2e2e2e"/><path d="M280.38-487.083a.523.523,0,0,1-.017.195C280.367-486.953,280.34-487.021,280.38-487.083Z" transform="translate(-258.183 487.878)" fill="#2e2e2e"/><path d="M280.363-484.955a.529.529,0,0,1,.017.194C280.341-484.823,280.367-484.89,280.363-484.955Z" transform="translate(-258.183 486.021)" fill="#2e2e2e"/><path d="M349.82-364v.185A.2.2,0,0,1,349.82-364Z" transform="translate(-318.775 380.474)" fill="#2e2e2e"/><path d="M265.89-361.683a.392.392,0,0,1,.017.171C265.869-361.566,265.894-361.626,265.89-361.683Z" transform="translate(-245.554 378.454)" fill="#2e2e2e"/><path d="M226.09-464.536l.156,0c-.054.036-.113.013-.17.016Z" transform="translate(-210.816 468.204)" fill="#2e2e2e"/><path d="M222.663-464.531a.439.439,0,0,1,.171.017C222.777-464.518,222.717-464.494,222.663-464.531Z" transform="translate(-207.838 468.2)" fill="#2e2e2e"/><path d="M350.381-476.992a.417.417,0,0,1,.171.017C350.495-476.978,350.435-476.954,350.381-476.992Z" transform="translate(-319.285 479.073)" fill="#2e2e2e"/><path d="M453.267-392.2a.443.443,0,0,1-.173-.017C453.152-392.217,453.213-392.242,453.267-392.2Z" transform="translate(-408.913 405.105)" fill="#2e2e2e"/><path d="M450.6-392.221a.463.463,0,0,1-.172.017C450.485-392.241,450.546-392.217,450.6-392.221Z" transform="translate(-406.589 405.105)" fill="#2e2e2e"/><path d="M265.906-366.2a.4.4,0,0,1-.017.17C265.893-366.083,265.869-366.143,265.906-366.2Z" transform="translate(-245.554 382.392)" fill="#2e2e2e"/><path d="M350.551-491.13a.437.437,0,0,1-.17.017C350.435-491.15,350.494-491.126,350.551-491.13Z" transform="translate(-319.285 491.413)" fill="#2e2e2e"/><path d="M355.442-476.971a.431.431,0,0,1,.171-.017C355.559-476.951,355.5-476.975,355.442-476.971Z" transform="translate(-323.701 479.07)" fill="#2e2e2e"/><path d="M350-360.947a.328.328,0,0,1,.018.147C349.981-360.845,350-360.9,350-360.947Z" transform="translate(-318.95 377.812)" fill="#2e2e2e"/><path d="M350.017-366.745a.329.329,0,0,1-.018.146C350-366.648,349.981-366.7,350.017-366.745Z" transform="translate(-318.949 382.871)" fill="#2e2e2e"/><path d="M360.658-482.42a.307.307,0,0,1,.018-.146C360.673-482.517,360.695-482.465,360.658-482.42Z" transform="translate(-328.252 483.937)" fill="#2e2e2e"/><path d="M296.9-485.662v-.138A.119.119,0,0,1,296.9-485.662Z" transform="translate(-272.617 486.759)" fill="#2e2e2e"/><path d="M255.486-363.676v-.139A.119.119,0,0,1,255.486-363.676Z" transform="translate(-236.48 380.314)" fill="#2e2e2e"/><path d="M360.676-486.387a.309.309,0,0,1-.017-.147C360.695-486.489,360.673-486.436,360.676-486.387Z" transform="translate(-328.252 487.399)" fill="#2e2e2e"/><path d="M497.489-303.566a.332.332,0,0,1-.149.017C497.386-303.585,497.439-303.564,497.489-303.566Z" transform="translate(-447.522 327.745)" fill="#2e2e2e"/><path d="M408.455-468.291a.324.324,0,0,1,.017.148C408.436-468.189,408.458-468.241,408.455-468.291Z" transform="translate(-369.957 471.48)" fill="#2e2e2e"/><path d="M456.876-278.314a.314.314,0,0,1-.018-.146C456.895-278.415,456.873-278.363,456.876-278.314Z" transform="translate(-412.196 305.833)" fill="#2e2e2e"/><path d="M422.43-473.016a.321.321,0,0,1-.017-.146C422.449-473.117,422.427-473.065,422.43-473.016Z" transform="translate(-382.14 475.731)" fill="#2e2e2e"/><path d="M125.383-340.853A.388.388,0,0,1,125.4-341C125.4-340.952,125.419-340.9,125.383-340.853Z" transform="translate(-122.951 360.408)" fill="#2e2e2e"/><path d="M355.772-491.111a.317.317,0,0,1-.147-.016C355.674-491.124,355.727-491.146,355.772-491.111Z" transform="translate(-323.861 491.41)" fill="#2e2e2e"/><path d="M296.1-346.977a.273.273,0,0,1-.146.017C296-346.995,296.054-346.974,296.1-346.977Z" transform="translate(-271.795 365.624)" fill="#2e2e2e"/><path d="M293.3-346.959a.271.271,0,0,1-.145-.017C293.207-346.973,293.258-346.995,293.3-346.959Z" transform="translate(-269.352 365.624)" fill="#2e2e2e"/><path d="M427.619-256.659a.268.268,0,0,1-.145-.017C427.523-256.673,427.574-256.694,427.619-256.659Z" transform="translate(-386.557 286.828)" fill="#2e2e2e"/><path d="M431.336-256.677a.292.292,0,0,1-.146.017C431.235-256.695,431.287-256.674,431.336-256.677Z" transform="translate(-389.799 286.828)" fill="#2e2e2e"/><path d="M408.472-473.163a.32.32,0,0,1-.017.148C408.457-473.064,408.435-473.117,408.472-473.163Z" transform="translate(-369.957 475.732)" fill="#2e2e2e"/><path d="M422.414-467.989a.232.232,0,0,1,.016-.125C422.428-468.072,422.447-468.027,422.414-467.989Z" transform="translate(-382.14 471.326)" fill="#2e2e2e"/><path d="M452.079-379.188a.2.2,0,0,1,.124.017C452.161-379.172,452.116-379.154,452.079-379.188Z" transform="translate(-408.027 393.73)" fill="#2e2e2e"/><path d="M296.706-483.354a.216.216,0,0,1,.018-.122C296.722-483.435,296.74-483.39,296.706-483.354Z" transform="translate(-272.447 484.731)" fill="#2e2e2e"/><path d="M447.821-379.172a.192.192,0,0,1,.121-.018C447.906-379.156,447.862-379.174,447.821-379.172Z" transform="translate(-404.312 393.732)" fill="#2e2e2e"/><path d="M501.04-303.545a.221.221,0,0,1-.127-.017C500.956-303.56,501-303.58,501.04-303.545Z" transform="translate(-450.64 327.741)" fill="#2e2e2e"/><path d="M292.941-379.725a.2.2,0,0,1,.126-.017C293.029-379.708,292.984-379.727,292.941-379.725Z" transform="translate(-269.163 394.214)" fill="#2e2e2e"/><path d="M255.3-360.839a.243.243,0,0,1,.016-.126C255.314-360.923,255.333-360.878,255.3-360.839Z" transform="translate(-236.316 377.827)" fill="#2e2e2e"/><path d="M297.913-334.294a.232.232,0,0,1,.123-.018C298-334.278,297.955-334.3,297.913-334.294Z" transform="translate(-273.501 354.571)" fill="#2e2e2e"/><path d="M291.375-334.313a.226.226,0,0,1,.123.018C291.457-334.3,291.412-334.279,291.375-334.313Z" transform="translate(-267.796 354.572)" fill="#2e2e2e"/><path d="M408.861-340.683a.282.282,0,0,1,.017-.125C408.876-340.766,408.894-340.721,408.861-340.683Z" transform="translate(-370.314 360.238)" fill="#2e2e2e"/><path d="M216.07-474.992a.221.221,0,0,1-.017.121C216.055-474.912,216.038-474.955,216.07-474.992Z" transform="translate(-202.068 477.328)" fill="#2e2e2e"/><path d="M296.719-487.876A.219.219,0,0,1,296.7-488C296.736-487.963,296.717-487.918,296.719-487.876Z" transform="translate(-272.443 488.678)" fill="#2e2e2e"/><path d="M284.986-493.3l-.023-.006c.036-.035.081-.016.122-.018Z" transform="translate(-262.201 493.325)" fill="#2e2e2e"/><path d="M255.319-366.436a.249.249,0,0,1-.016-.125C255.335-366.523,255.317-366.478,255.319-366.436Z" transform="translate(-236.319 382.71)" fill="#2e2e2e"/><path d="M337.633-323.032c0-.035.021-.078-.02-.107-.54,0-1.08.006-1.62,0-.1,0-.122.025-.122.122,0,1.064,0,2.128,0,3.192,0,.027,0,.054,0,.082s.007.04-.017.049-.035-.012-.048-.024q-.108-.1-.215-.194a2.712,2.712,0,0,0-1.518-.739.777.777,0,0,1-.219-.017h-.028a1.159,1.159,0,0,1-.265.017,3.805,3.805,0,0,0-1.4.383,3.658,3.658,0,0,0-1.13.876,3.9,3.9,0,0,0-.731,1.276,3.184,3.184,0,0,0-.175.924,3.605,3.605,0,0,0,0,.512,3.783,3.783,0,0,0,.079.57,3.551,3.551,0,0,0,.429,1.084,3.662,3.662,0,0,0,1.219,1.245,3.612,3.612,0,0,0,.922.415,3.021,3.021,0,0,1,.436.117h1.027a3.194,3.194,0,0,0,1.6-.88.892.892,0,0,0,.641.88h.56c0-.024.024-.03.04-.037a.9.9,0,0,0,.547-.757.292.292,0,0,0,.007-.1Q337.635-318.588,337.633-323.032Zm-3.8,8.2a2.1,2.1,0,0,1-2.1-2.1,2.1,2.1,0,0,1,2.1-2.107,2.1,2.1,0,0,1,2.1,2.1A2.1,2.1,0,0,1,333.835-314.832Z" transform="translate(-301.602 344.82)" fill="#2e2e2e"/><path d="M266.836-303.514a.1.1,0,0,0-.067-.012h-1.617c-.023,0-.047,0-.066.014,0,.233,0,.466,0,.7,0,.021.012.049-.015.062s-.041-.014-.057-.028c-.075-.067-.149-.135-.224-.2a2.718,2.718,0,0,0-1.5-.724c-.072-.021-.148.007-.22-.017h-.027c-.095.026-.193-.005-.289.017a3.915,3.915,0,0,0-1.353.367,3.671,3.671,0,0,0-1.237.979,3.771,3.771,0,0,0-.533.875,3.329,3.329,0,0,0-.29,1.191c-.023.1.009.194-.017.289,0,0,.006.006.006.008a.114.114,0,0,1-.006.019c.025.088,0,.178.017.266a3.033,3.033,0,0,0,.105.669,3.434,3.434,0,0,0,.431,1.009,3.673,3.673,0,0,0,.85.956,3.737,3.737,0,0,0,1.427.7.811.811,0,0,1,.273.073h1.027a3.208,3.208,0,0,0,1.6-.879.9.9,0,0,0,.643.879h.56c0-.024.024-.029.04-.037a.894.894,0,0,0,.543-.886Q266.836-300.371,266.836-303.514Zm-3.784,5.623a2.1,2.1,0,0,1-2.1-2.105,2.1,2.1,0,0,1,2.106-2.1,2.1,2.1,0,0,1,2.1,2.109A2.1,2.1,0,0,1,263.053-297.891Z" transform="translate(-239.827 327.878)" fill="#2e2e2e"/><path d="M408.185-299.722a.579.579,0,0,1,0-.19c-.026-.111.006-.225-.017-.336l-.006-.111c-.023-.046,0-.1-.018-.146a1.127,1.127,0,0,1-.025-.113,4.131,4.131,0,0,0-.519-1.595,2.913,2.913,0,0,0-.972-1.021,3.353,3.353,0,0,0-1.5-.473c-.1-.021-.193.009-.288-.017h-.028c-.087.025-.178,0-.265.016a4.017,4.017,0,0,0-1.405.372,3.741,3.741,0,0,0-1.227.941,3.794,3.794,0,0,0-.606.978,3.221,3.221,0,0,0-.268,1.145,4.186,4.186,0,0,0,0,.559,2.479,2.479,0,0,0,.032.352,4.156,4.156,0,0,0,.328.983,3.832,3.832,0,0,0,1.016,1.265,3.837,3.837,0,0,0,1.592.759c.061.014.138-.013.188.049h1.261c.03-.044.083-.037.123-.044a3.787,3.787,0,0,0,2.254-1.367c-.122-.091-.24-.178-.356-.266-.268-.2-.534-.407-.8-.608-.036-.027-.078-.079-.128-.018a2.837,2.837,0,0,1-.545.508,1.831,1.831,0,0,1-.982.375c-.047.023-.1,0-.146.017a1.85,1.85,0,0,1-.328,0c-.047-.018-.1.006-.145-.017a1.57,1.57,0,0,1-1.207-.654,2,2,0,0,1-.377-.929c-.022-.038-.039-.074.031-.073h5.176c.046,0,.093,0,.14,0a.045.045,0,0,1,0-.022C408.19-299.512,408.159-299.619,408.185-299.722Zm-1.839-.97h-3.405c-.138,0-.138,0-.12-.141a1.761,1.761,0,0,1,1.8-1.567,1.822,1.822,0,0,1,1.3.456,1.786,1.786,0,0,1,.519,1.177C406.445-300.685,406.4-300.692,406.346-300.692Z" transform="translate(-363.482 327.878)" fill="#2e2e2e"/><path d="M357.43-392.129c0-.031,0-.062.006-.093s-.038-.022-.059-.022c-.538,0-1.077,0-1.615,0-.078,0-.088.033-.087.1q0,.3,0,.592c0,.031.03.081-.033.093-.054-.049-.108-.1-.161-.147a2.814,2.814,0,0,0-1.615-.813h-.512a4.079,4.079,0,0,0-1.264.322,3.715,3.715,0,0,0-1.374,1.073,3.509,3.509,0,0,0-.507.851,3.231,3.231,0,0,0-.267,1.026c-.02.047.005.1-.018.146q0,.1-.006.2a.486.486,0,0,0,0,.186l.006.2c.023.047,0,.1.018.147a2.1,2.1,0,0,0,.058.357,2.975,2.975,0,0,0,.236.726,3.992,3.992,0,0,0,.549.867,3.7,3.7,0,0,0,1.041.866,3.568,3.568,0,0,0,1.6.455,1.874,1.874,0,0,0,.372,0,2.837,2.837,0,0,0,1.22-.453,4.756,4.756,0,0,0,.625-.507c.039-.011.033.019.034.039a.971.971,0,0,0,.007.17.851.851,0,0,0,.752.751.686.686,0,0,0,.232,0,.9.9,0,0,0,.752-.727c.017-.04,0-.085.017-.125,0-.031-.006-.062-.006-.093Q357.429-389.034,357.43-392.129Zm-3.78,5.521a2.106,2.106,0,0,1-2.114-2.1,2.1,2.1,0,0,1,2.1-2.109,2.1,2.1,0,0,1,2.105,2.1A2.1,2.1,0,0,1,353.649-386.608Z" transform="translate(-318.872 405.278)" fill="#2e2e2e"/><path d="M204.468-388.781l-.006-.225c-.019-.04,0-.084-.016-.125-.025-.136-.045-.273-.076-.408a3.655,3.655,0,0,0-1.247-2.033,3.742,3.742,0,0,0-2.091-.854h-.559a3.922,3.922,0,0,0-1.386.374,3.716,3.716,0,0,0-1.231.975,3.714,3.714,0,0,0-.542.9,3.367,3.367,0,0,0-.277,1.143c-.021.072.007.148-.017.22v.212c.024.072,0,.148.018.22a2.98,2.98,0,0,0,.035.338,4.053,4.053,0,0,0,.485,1.262,3.673,3.673,0,0,0,1.475,1.386,3.543,3.543,0,0,0,1.487.4,2.641,2.641,0,0,0,.442,0,3.569,3.569,0,0,0,1.249-.293,3.764,3.764,0,0,0,1.852-1.742,3.949,3.949,0,0,0,.383-1.26c.016-.04,0-.086.016-.126l.006-.224A.279.279,0,0,0,204.468-388.781Zm-3.718,2.17a2.1,2.1,0,0,1-2.107-2.1,2.1,2.1,0,0,1,2.1-2.1,2.1,2.1,0,0,1,2.1,2.107A2.1,2.1,0,0,1,200.749-386.611Z" transform="translate(-185.461 405.28)" fill="#2e2e2e"/></g></svg>