<svg xmlns="http://www.w3.org/2000/svg" width="76.431" height="24.726" viewBox="0 0 76.431 24.726"><g transform="translate(0 0)"><path d="M51.766,169.235c.1.219.286.438.286.658q.023,11.591.012,23.183c0,.5-.155.653-.653.654q-3.7.005-7.4,0a3.157,3.157,0,0,1-2.785-1.475c-2.166-3.16-4.4-6.276-6.585-9.421a1.585,1.585,0,0,1-.257-.809c-.031-.913-.012-1.827-.012-2.741,0-.243-.027-.5.275-.6s.494.049.67.294c2.623,3.645,5.264,7.277,7.873,10.932a1.9,1.9,0,0,0,1.7.877c1.159-.013,2.318,0,3.477,0,.478,0,.626-.144.626-.63q0-8.608,0-17.216c0-.5-.156-.64-.663-.642-1.024,0-2.048,0-3.073,0-.464,0-.6-.137-.608-.6-.005-.578-.025-1.157.01-1.733a3.01,3.01,0,0,1,.234-.727Z" transform="translate(-27.508 -169.235)" fill="#2e2e2e"/><path d="M25.244,169.235c.166.048.332.1.5.145a2.4,2.4,0,0,1,1.4.96q3.481,4.947,6.951,9.9a1.214,1.214,0,0,1,.191.635c.02.927.007,1.854.01,2.782,0,.267-.018.527-.32.628-.319.106-.486-.093-.655-.329-2.6-3.611-5.225-7.206-7.8-10.834a2.07,2.07,0,0,0-1.86-.968c-1.118.014-2.237,0-3.356,0-.5,0-.645.157-.645.66q0,8.588,0,17.177c0,.517.15.663.683.666,1,0,1.994,0,2.992,0,.551,0,.673.121.675.654,0,.6,0,1.21,0,1.815,0,.424-.158.589-.587.591q-3.113.009-6.227,0c-.446,0-.592-.164-.592-.621q0-11.633.009-23.265a1.933,1.933,0,0,1,.224-.608Z" transform="translate(-16.598 -169.235)" fill="#2e2e2e"/><path d="M210.942,217.519l-.391-.047v-1.518l-.08-.031-.679.887-.669-.889-.085.022c0,.41.013.821-.009,1.231-.006.112-.115.218-.177.327-.071-.1-.2-.2-.2-.3-.019-.655-.01-1.31-.01-1.959.367-.208.495.063.651.271s.318.423.508.675c.2-.266.387-.491.541-.736a.51.51,0,0,1,.6-.271Z" transform="translate(-134.511 -197.434)" fill="#2e2e2e"/><path d="M105.631,186.187v-6.158h1.542v9.126c-.471,0-.94.017-1.406-.012-.11-.007-.239-.149-.312-.261q-2-3.049-3.994-6.106c-.043-.066-.091-.13-.2-.286v6.641H99.688V180.01c.571,0,1.134-.015,1.694.013.106.005.228.165.3.279q1.758,2.68,3.5,5.366l.351.538Z" transform="translate(-67.616 -175.848)" fill="#2e2e2e"/><path d="M142.66,188.543l-.065.646h-1.35V180.1h1.518v2.983a3.107,3.107,0,0,1,1.706-.752,2.525,2.525,0,0,1,2.615,1.442,4.619,4.619,0,0,1-.069,4.193,2.643,2.643,0,0,1-4.177.7A1.312,1.312,0,0,0,142.66,188.543Zm.114-2.7c0,.4-.007.8,0,1.206a.536.536,0,0,0,.1.328,1.787,1.787,0,0,0,1.689.641,1.533,1.533,0,0,0,1.232-1.136,3.339,3.339,0,0,0,.064-1.863,1.641,1.641,0,0,0-2.639-1,.848.848,0,0,0-.459.857A7.873,7.873,0,0,1,142.774,185.84Z" transform="translate(-93.132 -175.908)" fill="#2e2e2e"/><path d="M104.483,213.3a2.39,2.39,0,0,1,1.365,3.378,2.215,2.215,0,0,1-1.824,1.311c-1.44.128-2.891.127-4.364.18v-9.23c.725,0,1.435-.008,2.145,0a15.675,15.675,0,0,1,1.893.074,2.248,2.248,0,0,1,.855,4.2C104.532,213.229,104.52,213.255,104.483,213.3Zm-3.912,3.945c1.044,0,2.055.061,3.054-.018a1.668,1.668,0,0,0,1.578-1.691,1.566,1.566,0,0,0-1.478-1.706c-1.035-.1-2.088-.022-3.154-.022Zm0-4.289c.91,0,1.772.029,2.632-.008a1.577,1.577,0,0,0,.145-3.149,7.494,7.494,0,0,0-1.087-.041c-.559-.006-1.118,0-1.69,0Z" transform="translate(-67.599 -193.611)" fill="#2e2e2e"/><path d="M165.911,189.961h-4.539a1.676,1.676,0,0,0,.846,1.448,2.531,2.531,0,0,0,2.734-.527l.68,1.07a3.886,3.886,0,0,1-4.477.469,2.844,2.844,0,0,1-1.181-1.583,4.588,4.588,0,0,1,.017-2.89,2.951,2.951,0,0,1,3.088-2.1,2.834,2.834,0,0,1,2.7,2.536C165.864,188.885,165.867,189.395,165.911,189.961Zm-1.595-1.109c-.071-1.166-.662-1.822-1.551-1.766a1.584,1.584,0,0,0-1.366,1.766Z" transform="translate(-104.494 -179.432)" fill="#2e2e2e"/><path d="M128.3,189.376a3.949,3.949,0,0,1-.644,2.259,2.987,2.987,0,0,1-3.035,1.261,2.812,2.812,0,0,1-2.428-1.973,4.391,4.391,0,0,1,.041-3.152,3.119,3.119,0,0,1,5.925.531C128.236,188.653,128.254,189.018,128.3,189.376Zm-1.515.017a10.1,10.1,0,0,0-.32-1.245,1.368,1.368,0,0,0-1.371-.929,1.4,1.4,0,0,0-1.36.956,3.114,3.114,0,0,0,.013,2.466,1.4,1.4,0,0,0,1.379.931,1.379,1.379,0,0,0,1.338-.926A9.838,9.838,0,0,0,126.784,189.393Z" transform="translate(-81.266 -179.437)" fill="#2e2e2e"/><path d="M160.254,216.3l-.307-.719a4.853,4.853,0,0,1,4.13-.538,1.82,1.82,0,0,1,1.048,1.887c.015,1.061,0,2.123,0,3.185a1.5,1.5,0,0,0,.455,1.278l-.6.532-.708-.812a16.812,16.812,0,0,1-1.784.712,2.3,2.3,0,0,1-1.722-.243,1.957,1.957,0,0,1-1.033-1.986,1.538,1.538,0,0,1,1.185-1.508c.772-.218,1.574-.334,2.366-.476.3-.054.616-.056.95-.084a7.345,7.345,0,0,0,0-.767,1.236,1.236,0,0,0-1.249-1.183,4.337,4.337,0,0,0-2.37.531Zm4,1.783c-.994.191-1.925.32-2.825.56a1.026,1.026,0,0,0-.816,1.18,1.229,1.229,0,0,0,.9,1.194,2.551,2.551,0,0,0,2.638-.747.437.437,0,0,0,.1-.249C164.258,219.423,164.254,218.823,164.254,218.084Z" transform="translate(-104.486 -197.199)" fill="#2e2e2e"/><path d="M188.666,218.743a2.422,2.422,0,0,0,1.3,2.205,2.677,2.677,0,0,0,2.964-.642l.4.591c-1.137,1.352-4.277,1.629-5.219-.788a4.551,4.551,0,0,1,.1-3.644,2.743,2.743,0,0,1,2.614-1.637,2.566,2.566,0,0,1,2.481,1.9,16.525,16.525,0,0,1,.367,2.015Zm4.012-.726a2.1,2.1,0,0,0-2-2.408,2.174,2.174,0,0,0-1.945,2.408Z" transform="translate(-121.703 -197.229)" fill="#2e2e2e"/><path d="M178.652,180.075h1.492c.007.151.019.3.019.459q0,3.2,0,6.41c0,1.011.051,1.059,1.067.993l.13,1.152a2.786,2.786,0,0,1-2.042.046,1.236,1.236,0,0,1-.708-1.223c-.015-2.566-.005-5.133,0-7.7A.589.589,0,0,1,178.652,180.075Z" transform="translate(-116.071 -175.891)" fill="#2e2e2e"/><path d="M131.605,218.273a14.224,14.224,0,0,1-.411,1.753,2.757,2.757,0,0,1-2.733,1.879,2.786,2.786,0,0,1-2.677-1.966,4.511,4.511,0,0,1,.134-3.456,2.7,2.7,0,0,1,2.595-1.665,2.6,2.6,0,0,1,2.573,1.613A13.051,13.051,0,0,1,131.605,218.273Zm-.973.084.115-.035a9.1,9.1,0,0,0-.555-1.732,1.906,1.906,0,0,0-3.345-.019,3.474,3.474,0,0,0,.024,3.611,1.926,1.926,0,0,0,3.3.021A3.235,3.235,0,0,0,130.632,218.357Z" transform="translate(-83.468 -197.223)" fill="#2e2e2e"/><path d="M148.032,219.657l.709.361a2.835,2.835,0,0,1-2.636,1.888,2.7,2.7,0,0,1-2.588-1.84,4.608,4.608,0,0,1,.076-3.534,2.676,2.676,0,0,1,2.558-1.712,2.581,2.581,0,0,1,2.477,1.564,1.078,1.078,0,0,1,.062.147.4.4,0,0,1,0,.1l-.695.324c-.063-.11-.116-.2-.166-.294a1.788,1.788,0,0,0-1.749-1.065,1.819,1.819,0,0,0-1.656,1.163,3.756,3.756,0,0,0-.008,3.2,1.8,1.8,0,0,0,3.261.259C147.8,220.048,147.9,219.862,148.032,219.657Z" transform="translate(-94.334 -197.224)" fill="#2e2e2e"/><path d="M179.016,221.68h-.832v-6.7h.805l.044.835a11.2,11.2,0,0,1,1.23-.849,1.98,1.98,0,0,1,1.457-.1v.774c-.243,0-.468-.008-.691,0a2.472,2.472,0,0,0-1.9,1.074.785.785,0,0,0-.11.451c-.008,1.343,0,2.685,0,4.028Z" transform="translate(-115.813 -197.195)" fill="#2e2e2e"/><path d="M120.8,221.99h-.837v-6.664h.837Z" transform="translate(-80.065 -197.535)" fill="#2e2e2e"/><path d="M204.012,215.5a2.52,2.52,0,0,1-.464-.007c-.077-.017-.139-.107-.208-.163.073-.054.144-.152.219-.155.43-.015.862-.019,1.291,0,.091,0,.176.133.264.2l-.071.1-.632.037c0,.549.012,1.084-.009,1.618,0,.122-.12.241-.184.361-.069-.116-.193-.229-.2-.347C204,216.622,204.012,216.087,204.012,215.5Z" transform="translate(-131.259 -197.437)" fill="#2e2e2e"/><path d="M120.69,209.818a.591.591,0,1,1-1.181-.045.591.591,0,0,1,1.181.045Z" transform="translate(-79.786 -193.78)" fill="#2e2e2e"/></g></svg>