<svg xmlns="http://www.w3.org/2000/svg" width="205.82" height="52.279" viewBox="0 0 205.82 52.279"><g transform="translate(-16.727 -24.033)"><g transform="translate(16.727 24.033)"><path d="M46.2,24.033c2.56,0,4.065.792,5.108,2.23,1.043,1.5,1.109,2.745,1.109,5.372,0,0-.066,25.144-.132,26.464a29.73,29.73,0,0,1-1.835,8.711,13.839,13.839,0,0,1-4.976,6.032,20.808,20.808,0,0,1-19.389.911,13.374,13.374,0,0,1-4.646-3.339,15.915,15.915,0,0,1-3.406-5.768,24.97,24.97,0,0,1-1.307-8.394,24.62,24.62,0,0,1,1.307-8.382,16.408,16.408,0,0,1,3.406-5.833A13.206,13.206,0,0,1,26.085,38.7a13.91,13.91,0,0,1,5.306-1.109,16.191,16.191,0,0,1,6.283,1.307,13.853,13.853,0,0,1,4.844,3.141v-18ZM26.547,56.317a14.641,14.641,0,0,0,.4,3.6,10.661,10.661,0,0,0,1.5,3.6,7.238,7.238,0,0,0,2.56,2.494,6.853,6.853,0,0,0,3.735.977,7.458,7.458,0,0,0,6.283-3.471,10.4,10.4,0,0,0,1.5-3.6,14.905,14.905,0,0,0,.4-3.6v-.33a12.529,12.529,0,0,0-.4-2.692,11.376,11.376,0,0,0-1.5-3.6A6.976,6.976,0,0,0,38.413,47.2a6.607,6.607,0,0,0-3.67-.924,6.863,6.863,0,0,0-3.735.924,7.234,7.234,0,0,0-2.56,2.494,10.961,10.961,0,0,0-1.5,3.6,11.446,11.446,0,0,0-.4,2.56Z" transform="translate(-16.727 -24.033)" fill="#fff"/></g><path d="M91.98,76.564a17.087,17.087,0,0,1-4.712,1.966,27.538,27.538,0,0,1-6.216.792h-.845c-6.679,0-11.787-2.811-13.489-5.174a7.633,7.633,0,0,1-1.439-5.042s-.2-3.669-.2-7.721a50.54,50.54,0,0,1,.528-8.448c.726-3.273,2.494-6.546,5.108-8.315a19.7,19.7,0,0,1,11.457-3.405,21.96,21.96,0,0,1,8.249,1.373,12.041,12.041,0,0,1,3.8,2.362,11.125,11.125,0,0,1,2.3,3.273,10.9,10.9,0,0,1,.911,4.58,12.787,12.787,0,0,1-1.043,4.844,10.266,10.266,0,0,1-6.217,5.768c-.066,0-.132.066-.2.066a22.034,22.034,0,0,1-4.25.845c-1.439.264-2.811.462-4.2.594a15.077,15.077,0,0,0-3.339.462,6.1,6.1,0,0,0-2.5,1.175,2.2,2.2,0,0,0-.977,1.7,4.453,4.453,0,0,0,.462,2.1c.911,1.439,3.736,1.835,6.547,1.835a7.152,7.152,0,0,0,4.382-1.175,4.305,4.305,0,0,0,1.9-3.274H97.5a13.349,13.349,0,0,1-1.637,5.174A12.321,12.321,0,0,1,91.98,76.564ZM78.307,58.1a18.755,18.755,0,0,1,2.164-.33c.726-.066,1.5-.2,2.23-.33s1.439-.33,2.164-.528A5.216,5.216,0,0,0,86.635,56a4.406,4.406,0,0,0,1.7-3.34v-.33a3.967,3.967,0,0,0-.462-1.835,3.484,3.484,0,0,0-1.241-1.307,5.437,5.437,0,0,0-1.9-.726,12.2,12.2,0,0,0-2.23-.2,8.164,8.164,0,0,0-4.316.977,6.328,6.328,0,0,0-2.3,2.23,7.931,7.931,0,0,0-.911,2.613c-.066.911-.132,1.637-.132,2.165v3.141a4.638,4.638,0,0,1,1.5-.792A17.421,17.421,0,0,1,78.307,58.1Z" transform="translate(-8.468 -3.01)" fill="#fff"/><path d="M169.906,38.772v2.164a5.379,5.379,0,0,1-1.175,3.405A5.961,5.961,0,0,1,164.8,45.78h-2.613V63.532A5.511,5.511,0,0,0,163.03,67c.594.594,1.769.66,3.471.66h3.405v8.184h-6.216a23.891,23.891,0,0,1-4.448-.33,10.251,10.251,0,0,1-3.8-1.241,7.217,7.217,0,0,1-2.547-2.679,9.6,9.6,0,0,1-.911-4.515V24.689h3.8a6.433,6.433,0,0,1,5.108,2.164,5.852,5.852,0,0,1,1.307,3.669v8.25Z" transform="translate(-23.687 -0.115)" fill="#fff"/><path d="M187.961,37.072v1.769h7.722v2.164a5.1,5.1,0,0,1-1.175,3.405,5.413,5.413,0,0,1-4,1.439H187.9V75.836H177.68v-42.3a9.763,9.763,0,0,1,.911-4.514,6.479,6.479,0,0,1,2.613-2.679,10.419,10.419,0,0,1,3.735-1.307,33,33,0,0,1,4.514-.33h6.217v8.249h-3.405c-1.769,0-2.878.066-3.472.66S187.961,35.369,187.961,37.072Z" transform="translate(-28.187 -0.118)" fill="#fff"/><path d="M203.473,26.867v-2.1h10.15v8.315h-3.736c-1.637,0-3.933-.528-4.976-1.7A6.809,6.809,0,0,1,203.473,26.867Zm10.15,19.771V75.848h-10.15V38.918h3.405a5.786,5.786,0,0,1,5.174,2.362C213.557,43.168,213.623,44.606,213.623,46.639Z" transform="translate(-32.704 -0.129)" fill="#fff"/><path d="M224.521,41.922a18.8,18.8,0,0,1,7.92,1.769,12.6,12.6,0,0,1,3.867,4l2.613,3.867,6.414-9.621h11.259l-12.183,17.29L258.1,78.865h-4a18.8,18.8,0,0,1-7.471-1.769,19.6,19.6,0,0,1-3.471-3.207l-4.382-6.679-7.722,11.655H219.73l13.291-19.441L220.839,41.935h3.682Z" transform="translate(-35.551 -3.133)" fill="#fff"/><g transform="translate(93.159 38.786)"><path d="M141.315,72.965c.145-.449.29-.9.422-1.346a45.715,45.715,0,0,1-4.566.5,39.586,39.586,0,0,1-4.91.066c.119.449.224.911.317,1.359-.277.079-.422.158-.422.238.013.277,2.2.37,4.883.2s4.831-.528,4.818-.805C141.843,73.084,141.645,73.018,141.315,72.965Z" transform="translate(-113.373 -47.119)" fill="#fff"/><path d="M140.49,76.2c.119-.317.251-.62.37-.937a20.7,20.7,0,0,1-3.828.5,17.188,17.188,0,0,1-4.065-.066c.053.343.079.673.119,1-.185.066-.29.119-.29.172.013.238,1.848.3,4.1.159s4.066-.45,4.039-.674C140.913,76.3,140.767,76.244,140.49,76.2Z" transform="translate(-113.485 -47.758)" fill="#fff"/><path d="M139.871,78.212a13.606,13.606,0,0,1-3.3.475,13.279,13.279,0,0,1-3.365-.066c.013.317.026.62.04.924-.2.053-.3.119-.29.172.013.2,1.544.251,3.431.132s3.406-.37,3.393-.568c0-.053-.132-.092-.343-.132.145-.3.3-.62.436-.937Z" transform="translate(-113.513 -48.274)" fill="#fff"/><path d="M136.17,81.372a19.605,19.605,0,0,1-2.93.013c0,.317-.013.607-.026.858-.185.053-.29.106-.29.145a7.132,7.132,0,0,0,2.824.119,7.023,7.023,0,0,0,2.786-.462c0-.053-.132-.092-.37-.119.172-.264.343-.541.5-.818A23.442,23.442,0,0,1,136.17,81.372Z" transform="translate(-113.508 -48.781)" fill="#fff"/><path d="M133.227,83.951c.581,3.907,3.471.436,3.471.436.2-.224.384-.449.568-.686-.5.079-1.2.158-1.994.211A18.77,18.77,0,0,1,133.227,83.951Z" transform="translate(-113.561 -49.235)" fill="#fff"/><path d="M138.291,64.5a65.015,65.015,0,0,0,1.544-8c1.241-11.166-4.2-13.806-4.2-13.806-2.8-1.808-8.236,1.4-8.236,1.4a19.4,19.4,0,0,1-10.308,2.758c5.782-1.4,6.837-2.508,6.837-2.508-1.742-.04-5.781-1.98-5.781-1.98-7.51-2.626-8.566,7.048-8.566,7.048a33.355,33.355,0,0,0,3.55,19.164c3.511,7.339,5.1,6.27,5.1,6.27.95-.581.977-3.049.977-3.049.488-5.28,1.742-7.088,1.742-7.088,2.349-4.118,4.923-2.257,5.622-1.623a3.666,3.666,0,0,1,.277.356,13.67,13.67,0,0,1,.884,1.887c-.317.092-.488.185-.488.277.026.33,2.6.436,5.768.224s5.716-.634,5.689-.95c0-.079-.172-.145-.462-.2a.756.756,0,0,1,.053-.185Z" transform="translate(-109.386 -41.918)" fill="#fff"/></g></g></svg>